<?xml version="1.0" encoding="UTF-8"?>
<svg id="kun-logo" xmlns="http://www.w3.org/2000/svg" viewBox="0 0 420 300">
  <defs>
    <linearGradient id="kun-blue" x1="49" y1="252" x2="374" y2="55" gradientUnits="userSpaceOnUse">
      <stop offset="0" stop-color="#075cff"/>
      <stop offset="0.52" stop-color="#176bff"/>
      <stop offset="1" stop-color="#06b6d4"/>
    </linearGradient>
    <linearGradient id="kun-blue-deep" x1="67" y1="258" x2="354" y2="53" gradientUnits="userSpaceOnUse">
      <stop offset="0" stop-color="#0348d9"/>
      <stop offset="0.58" stop-color="#0b63f6"/>
      <stop offset="1" stop-color="#0891b2"/>
    </linearGradient>
    <mask id="kun-cutouts" maskUnits="userSpaceOnUse">
      <rect width="420" height="300" fill="#fff"/>
      <path
        d="M120 111c45-29 93-29 144-3 28 14 55 20 84 10"
        fill="none"
        stroke="#000"
        stroke-linecap="round"
        stroke-width="7.6"
      />
      <path
        d="M113 198c45 5 82 27 112 66"
        fill="none"
        stroke="#000"
        stroke-linecap="round"
        stroke-width="10.5"
      />
      <path
        d="M287 133c19 5 34 23 39 47"
        fill="none"
        stroke="#000"
        stroke-linecap="round"
        stroke-width="11.5"
      />
      <circle cx="294.5" cy="151.5" r="5.6" fill="#000"/>
    </mask>
  </defs>
  <g mask="url(#kun-cutouts)">
    <path
      fill="url(#kun-blue)"
      d="M43.7 198.5C63 111.6 142.8 52.9 239.3 60.1c75.1 5.7 132.1 52.8 144.2 115.2 10.3 52.8-22.8 92.9-84.7 101.7 29.2 19.7 62.1 30.2 98.1 31.4-49.4 28.2-122.8 17.4-174.2-25.7-41.5-34.9-67.3-84.7-111.7-93.9-28.2-5.8-52.9-2.6-67.3 9.7Z"
    />
    <path
      fill="url(#kun-blue)"
      d="M214.1 63.5C248.7 23 303.5 4.8 363.1 15.6c-34.4 19.8-49.4 48.6-43.2 81.6 7.1 37.6 38.6 58.5 78.1 74.5-55 6.4-102.5-8.2-137.3-42.5-20.6-20.3-31.8-44-46.6-65.7Z"
    />
    <path
      fill="url(#kun-blue-deep)"
      d="M61.6 181.7C24.3 161.5 7.8 127.7 10.8 84.3c35.6 19.9 64.9 43.5 88.7 73.1 15.3 19 31.1 34.9 50.7 45.8-32.5-2.9-61.5-10-88.6-21.5Z"
    />
    <path
      fill="url(#kun-blue-deep)"
      d="M55.4 216.6c31.9 21.8 72.2 30.7 121.4 26.8 44.3-3.5 83.4 2.4 117.4 17.6-53.8 2.4-96.7 13.6-128.8 33.7-44.4-.6-81.1-13.4-110-38.4-19.5-16.9-29.8-33.6-30.9-50.1 8 5.1 18.3 8.6 30.9 10.4Z"
    />
    <path
      fill="url(#kun-blue)"
      d="M312.2 199.3c23.6-7.1 44.2-7.9 61.9-2.3-8.5 17.1-25.2 31.2-50.2 42.2-20.2 8.9-41.8 13.3-64.8 13.3 21.3-12.7 39-30.4 53.1-53.2Z"
    />
    <path
      fill="url(#kun-blue)"
      d="M87.7 252.6c51.5 18.1 104.1 12.3 157.9-17.5 36.1-20 75.3-27.3 117.7-21.9-38.6 18.8-69.7 39.5-93.5 62.3-79.6 33.9-146.9 28.9-202-14.9 6.3-.9 13-3.6 19.9-8Z"
      opacity="0.88"
    />
  </g>
  <path
    fill="#0ea5e9"
    d="M111.6 93.8c22.4-15.4 47.6-23.5 75.8-24.4-22.5 9-43.1 21.8-61.8 38.4-6.7-.7-11.4-5.4-14-14Z"
    opacity="0.82"
  />
</svg>
