<svg xmlns="http://www.w3.org/2000/svg" viewBox="0 0 1280 720" width="1280" height="720"
     font-family="-apple-system, BlinkMacSystemFont, 'Segoe UI', sans-serif"
     font-size="12">
    <!--
    Gauge Chart Template
    Usage: Single metric attainment display
    Scenarios: KPI completion, health index, performance score
    Supports: 3 gauges side by side
    -->
    <!-- Background -->
    <rect width="1280" height="720" fill="#F8FAFC"/>
    <!-- Title -->
    <g id="header" data-pptx-bounds="40 15 1200 125">
        <text x="640" y="60"
              font-size="32" font-weight="700" fill="#0F172A" text-anchor="middle">Core Business KPI Dashboard</text>
        <text x="640" y="95"
              font-size="18" fill="#64748B" text-anchor="middle">Q4 Performance Real-time Data</text>
    </g>
    <!-- Gauge 1: Sales Completion 85% -->
    <g id="gauge1" data-pptx-bounds="10 191 427 351" transform="translate(220, 380)">
        <!-- Background Arc -->
        <path d="M -150,0 A 150,150 0 0,1 150,0" fill="none" stroke="#E2E8F0" stroke-width="30" stroke-linecap="round"/>
        <!-- Scales (0-60% Red, 60-80% Amber, 80-100% Emerald) -->
        <path d="M -150,0 A 150,150 0 0,1 46.35,-142.66" fill="none" stroke="#FECACA" stroke-width="30" stroke-linecap="round"/>
        <path d="M 46.35,-142.66 A 150,150 0 0,1 121.35,-88.17" fill="none" stroke="#FDE68A" stroke-width="30" stroke-linecap="round"/>
        <path d="M 121.35,-88.17 A 150,150 0 0,1 150,0" fill="none" stroke="#A7F3D0" stroke-width="30" stroke-linecap="round"/>
        <!-- Value Arc 85% -->
        <path d="M -150,0 A 150,150 0 0,1 133.65,-68.10" fill="none" stroke="#059669" stroke-width="30" stroke-linecap="round"/>
        <!-- Tick Marks -->
        <line x1="-135" y1="0" x2="-120" y2="0" stroke="#64748B" stroke-width="2"/>
        <line x1="-95.5" y1="-95.5" x2="-84.85" y2="-84.85" stroke="#64748B" stroke-width="2"/>
        <line x1="0" y1="-135" x2="0" y2="-120" stroke="#64748B" stroke-width="2"/>
        <line x1="95.5" y1="-95.5" x2="84.85" y2="-84.85" stroke="#64748B" stroke-width="2"/>
        <line x1="135" y1="0" x2="120" y2="0" stroke="#64748B" stroke-width="2"/>
        <!-- Tick Labels -->
        <text x="-155" y="25"
              font-size="14" fill="#64748B" text-anchor="middle">0%</text>
        <text x="0" y="-155"
              font-size="14" fill="#64748B" text-anchor="middle">50%</text>
        <text x="155" y="25"
              font-size="14" fill="#64748B" text-anchor="middle">100%</text>
        <!-- Needle (85% = 153°, start from -90°) -->
        <g transform="rotate(63)">
            <path d="M 0,-100 L -8,0 L 0,15 L 8,0 Z" fill="#0F172A"/>
        </g>
        <circle cx="0" cy="0" r="15" fill="#0F172A"/>
        <circle cx="0" cy="0" r="8" fill="#FFFFFF"/>
        <!-- Center Value -->
        <text x="0" y="60"
              font-size="48" font-weight="700" fill="#10B981" text-anchor="middle">85%</text>
        <!-- Title -->
        <text x="0" y="100"
              font-size="18" font-weight="600" fill="#0F172A" text-anchor="middle">Sales Target Attainment</text>
        <!-- Status Tag -->
        <rect x="-40" y="115" width="80" height="26" rx="13" fill="#D1FAE5"/>
        <text x="0" y="133"
              font-size="13" font-weight="600" fill="#10B981" text-anchor="middle">Excellent</text>
    </g>
    <!-- Gauge 2: Customer Satisfaction 72% -->
    <g id="gauge2" data-pptx-bounds="430 191 427 351" transform="translate(640, 380)">
        <!-- Background Arc -->
        <path d="M -150,0 A 150,150 0 0,1 150,0" fill="none" stroke="#E2E8F0" stroke-width="30" stroke-linecap="round"/>
        <!-- Scales -->
        <path d="M -150,0 A 150,150 0 0,1 46.35,-142.66" fill="none" stroke="#FECACA" stroke-width="30" stroke-linecap="round"/>
        <path d="M 46.35,-142.66 A 150,150 0 0,1 121.35,-88.17" fill="none" stroke="#FDE68A" stroke-width="30" stroke-linecap="round"/>
        <path d="M 121.35,-88.17 A 150,150 0 0,1 150,0" fill="none" stroke="#A7F3D0" stroke-width="30" stroke-linecap="round"/>
        <!-- Value Arc 72% -->
        <path d="M -150,0 A 150,150 0 0,1 95.61,-115.58" fill="none" stroke="#2563EB" stroke-width="30" stroke-linecap="round"/>
        <!-- Tick Marks -->
        <line x1="-135" y1="0" x2="-120" y2="0" stroke="#64748B" stroke-width="2"/>
        <line x1="-95.5" y1="-95.5" x2="-84.85" y2="-84.85" stroke="#64748B" stroke-width="2"/>
        <line x1="0" y1="-135" x2="0" y2="-120" stroke="#64748B" stroke-width="2"/>
        <line x1="95.5" y1="-95.5" x2="84.85" y2="-84.85" stroke="#64748B" stroke-width="2"/>
        <line x1="135" y1="0" x2="120" y2="0" stroke="#64748B" stroke-width="2"/>
        <!-- Tick Labels -->
        <text x="-155" y="25"
              font-size="14" fill="#64748B" text-anchor="middle">0%</text>
        <text x="0" y="-155"
              font-size="14" fill="#64748B" text-anchor="middle">50%</text>
        <text x="155" y="25"
              font-size="14" fill="#64748B" text-anchor="middle">100%</text>
        <!-- Needle -->
        <g transform="rotate(39.6)">
            <path d="M 0,-100 L -8,0 L 0,15 L 8,0 Z" fill="#0F172A"/>
        </g>
        <circle cx="0" cy="0" r="15" fill="#0F172A"/>
        <circle cx="0" cy="0" r="8" fill="#FFFFFF"/>
        <!-- Center Value -->
        <text x="0" y="60"
              font-size="48" font-weight="700" fill="#3B82F6" text-anchor="middle">72%</text>
        <!-- Title -->
        <text x="0" y="100"
              font-size="18" font-weight="600" fill="#0F172A" text-anchor="middle">Customer Satisfaction</text>
        <!-- Status Tag -->
        <rect x="-35" y="115" width="70" height="26" rx="13" fill="#DBEAFE"/>
        <text x="0" y="133"
              font-size="13" font-weight="600" fill="#3B82F6" text-anchor="middle">Good</text>
    </g>
    <!-- Gauge 3: Inventory Turnover 58% -->
    <g id="gauge3" data-pptx-bounds="850 191 427 351" transform="translate(1060, 380)">
        <!-- Background Arc -->
        <path d="M -150,0 A 150,150 0 0,1 150,0" fill="none" stroke="#E2E8F0" stroke-width="30" stroke-linecap="round"/>
        <!-- Scales -->
        <path d="M -150,0 A 150,150 0 0,1 46.35,-142.66" fill="none" stroke="#FECACA" stroke-width="30" stroke-linecap="round"/>
        <path d="M 46.35,-142.66 A 150,150 0 0,1 121.35,-88.17" fill="none" stroke="#FDE68A" stroke-width="30" stroke-linecap="round"/>
        <path d="M 121.35,-88.17 A 150,150 0 0,1 150,0" fill="none" stroke="#A7F3D0" stroke-width="30" stroke-linecap="round"/>
        <!-- Value Arc 58% -->
        <path d="M -150,0 A 150,150 0 0,1 37.30,-145.29" fill="none" stroke="#D97706" stroke-width="30" stroke-linecap="round"/>
        <!-- Tick Marks -->
        <line x1="-135" y1="0" x2="-120" y2="0" stroke="#64748B" stroke-width="2"/>
        <line x1="-95.5" y1="-95.5" x2="-84.85" y2="-84.85" stroke="#64748B" stroke-width="2"/>
        <line x1="0" y1="-135" x2="0" y2="-120" stroke="#64748B" stroke-width="2"/>
        <line x1="95.5" y1="-95.5" x2="84.85" y2="-84.85" stroke="#64748B" stroke-width="2"/>
        <line x1="135" y1="0" x2="120" y2="0" stroke="#64748B" stroke-width="2"/>
        <!-- Tick Labels -->
        <text x="-155" y="25"
              font-size="14" fill="#64748B" text-anchor="middle">0%</text>
        <text x="0" y="-155"
              font-size="14" fill="#64748B" text-anchor="middle">50%</text>
        <text x="155" y="25"
              font-size="14" fill="#64748B" text-anchor="middle">100%</text>
        <!-- Needle -->
        <g transform="rotate(14.4)">
            <path d="M 0,-100 L -8,0 L 0,15 L 8,0 Z" fill="#0F172A"/>
        </g>
        <circle cx="0" cy="0" r="15" fill="#0F172A"/>
        <circle cx="0" cy="0" r="8" fill="#FFFFFF"/>
        <!-- Center Value -->
        <text x="0" y="60"
              font-size="48" font-weight="700" fill="#F59E0B" text-anchor="middle">58%</text>
        <!-- Title -->
        <text x="0" y="100"
              font-size="18" font-weight="600" fill="#0F172A" text-anchor="middle">Inventory Turnover</text>
        <!-- Status Tag -->
        <rect x="-40" y="115" width="80" height="26" rx="13" fill="#FEF3C7"/>
        <text x="0" y="133"
              font-size="13" font-weight="600" fill="#F59E0B" text-anchor="middle">Warning</text>
    </g>
    <!-- Legend -->
    <g id="legendBar" data-pptx-bounds="265 593 750 54" transform="translate(340, 600)">
        <rect x="0" y="0" width="600" height="40" rx="8" fill="#FFFFFF" stroke="#E2E8F0"/>
        <rect x="30" y="12" width="16" height="16" rx="3" fill="#FECACA"/>
        <text x="55" y="24"
              font-size="13" font-weight="600" fill="#475569">Critical (0-60%)</text>
        <rect x="180" y="12" width="16" height="16" rx="3" fill="#FDE68A"/>
        <text x="205" y="24"
              font-size="13" font-weight="600" fill="#475569">Warning (60-80%)</text>
        <rect x="340" y="12" width="16" height="16" rx="3" fill="#A7F3D0"/>
        <text x="365" y="24"
              font-size="13" font-weight="600" fill="#475569">Target (80-100%)</text>
        <text x="500" y="24"
              font-size="13" fill="#94A3B8">Benchmark: 80%</text>
    </g>
    <!-- Data Source -->
    <g id="source" data-pptx-bounds="40 670 1200 40">
        <text x="640" y="695"
              font-size="14" fill="#94A3B8" text-anchor="middle">Source: Business Intelligence Platform · Live Data</text>
    </g>
</svg>
