<svg xmlns="http://www.w3.org/2000/svg" viewBox="0 0 1280 720" width="1280" height="720"
     font-family="-apple-system, BlinkMacSystemFont, 'Segoe UI', 'PingFang SC', 'Microsoft YaHei', sans-serif">
    <!-- Timeline: six milestones with completed, current, and planned states. -->
    <rect width="1280" height="720" fill="#FFFFFF"/>

    <!-- Header -->
    <g id="header" data-pptx-bounds="60 38 1160 72">
        <text x="60" y="74" font-size="32" font-weight="800" fill="#0F172A">Product Development Roadmap</text>
        <text x="60" y="102" font-size="14" font-weight="600" fill="#64748B" letter-spacing="1">2024 — 2026 · SIX KEY MILESTONES</text>
        <rect x="1010" y="56" width="210" height="48" rx="24" fill="#F1F5F9"/>
        <path d="M 1034 56 H 1115 V 104 H 1034 A 24 24 0 0 1 1010 80 A 24 24 0 0 1 1034 56 Z" fill="#059669"/>
        <text x="1062" y="86" font-size="14" font-weight="800" fill="#FFFFFF" text-anchor="middle" letter-spacing="1">50% DONE</text>
        <text x="1167" y="86" font-size="14" font-weight="800" fill="#475569" text-anchor="middle" letter-spacing="1">3 / 6</text>
    </g>

    <!-- Year labels and timeline track -->
    <g id="timeline-track" data-pptx-bounds="100 320 1080 70">
        <rect x="100" y="326" width="540" height="64" rx="12" fill="#F8FAFC"/>
        <rect x="650" y="326" width="330" height="64" rx="12" fill="#F8FAFC"/>
        <rect x="990" y="326" width="190" height="64" rx="12" fill="#F8FAFC"/>
        <text x="120" y="345" font-size="12" font-weight="700" fill="#94A3B8" letter-spacing="1.5">2024</text>
        <text x="670" y="345" font-size="12" font-weight="700" fill="#94A3B8" letter-spacing="1.5">2025</text>
        <text x="1010" y="345" font-size="12" font-weight="700" fill="#94A3B8" letter-spacing="1.5">2026</text>
        <line x1="120" y1="360" x2="1160" y2="360" stroke="#CBD5E1" stroke-width="8" stroke-linecap="round"/>
        <line x1="120" y1="360" x2="736" y2="360" stroke="#2563EB" stroke-width="8" stroke-linecap="round"/>
    </g>

    <!-- Current-date marker -->
    <g id="current-date-marker" data-pptx-bounds="680 112 112 222">
        <line x1="736" y1="144" x2="736" y2="334" stroke="#2563EB" stroke-width="1.5" stroke-dasharray="4,4"/>
        <rect x="691" y="116" width="90" height="28" rx="14" fill="#2563EB"/>
        <text x="736" y="135" font-size="12" font-weight="700" fill="#FFFFFF" text-anchor="middle" letter-spacing="1.5">· TODAY ·</text>
    </g>

    <!-- Milestone nodes -->
    <g id="milestone-nodes" data-pptx-bounds="140 300 1000 120">
        <g id="node-1">
            <line x1="160" y1="304" x2="160" y2="342" stroke="#2563EB" stroke-width="2"/>
            <circle cx="160" cy="360" r="16" fill="#2563EB"/>
            <path d="M 153 360 L 158 365 L 167 355" fill="none" stroke="#FFFFFF" stroke-width="3" stroke-linecap="round" stroke-linejoin="round"/>
        </g>
        <g id="node-2">
            <line x1="352" y1="378" x2="352" y2="416" stroke="#2563EB" stroke-width="2"/>
            <circle cx="352" cy="360" r="16" fill="#2563EB"/>
            <path d="M 345 360 L 350 365 L 359 355" fill="none" stroke="#FFFFFF" stroke-width="3" stroke-linecap="round" stroke-linejoin="round"/>
        </g>
        <g id="node-3">
            <line x1="544" y1="304" x2="544" y2="342" stroke="#2563EB" stroke-width="2"/>
            <circle cx="544" cy="360" r="16" fill="#2563EB"/>
            <path d="M 537 360 L 542 365 L 551 355" fill="none" stroke="#FFFFFF" stroke-width="3" stroke-linecap="round" stroke-linejoin="round"/>
        </g>
        <g id="node-4">
            <line x1="736" y1="378" x2="736" y2="416" stroke="#2563EB" stroke-width="2"/>
            <circle cx="736" cy="360" r="20" fill="#FFFFFF" stroke="#2563EB" stroke-width="4"/>
            <circle cx="736" cy="360" r="7" fill="#2563EB"/>
        </g>
        <g id="node-5">
            <line x1="928" y1="304" x2="928" y2="342" stroke="#94A3B8" stroke-width="2"/>
            <circle cx="928" cy="360" r="13" fill="#FFFFFF" stroke="#94A3B8" stroke-width="2.5"/>
        </g>
        <g id="node-6">
            <line x1="1120" y1="378" x2="1120" y2="416" stroke="#94A3B8" stroke-width="2"/>
            <circle cx="1120" cy="360" r="13" fill="#FFFFFF" stroke="#94A3B8" stroke-width="2.5"/>
        </g>
    </g>

    <!-- Milestone cards -->
    <g id="milestone-cards" data-pptx-bounds="60 150 1160 440">
        <g id="card-1">
            <rect x="62" y="160" width="196" height="144" rx="10" fill="#FFFFFF" stroke="#CBD5E1" stroke-width="1.5"/>
            <rect x="62" y="160" width="196" height="34" rx="10" fill="#2563EB"/>
            <rect x="62" y="184" width="196" height="10" fill="#2563EB"/>
            <text x="160" y="183" font-size="13" font-weight="700" fill="#FFFFFF" text-anchor="middle">2024 Q1</text>
            <text x="160" y="230" font-size="16" font-weight="700" fill="#0F172A" text-anchor="middle">Project Initiation</text>
            <text x="160" y="256" font-size="13" fill="#64748B" text-anchor="middle">Requirement analysis</text>
            <text x="160" y="278" font-size="13" fill="#64748B" text-anchor="middle">Technical architecture</text>
        </g>

        <g id="card-2">
            <rect x="254" y="416" width="196" height="144" rx="10" fill="#FFFFFF" stroke="#CBD5E1" stroke-width="1.5"/>
            <rect x="254" y="526" width="196" height="34" rx="10" fill="#2563EB"/>
            <rect x="254" y="526" width="196" height="10" fill="#2563EB"/>
            <text x="352" y="549" font-size="13" font-weight="700" fill="#FFFFFF" text-anchor="middle">2024 Q2</text>
            <text x="352" y="452" font-size="16" font-weight="700" fill="#0F172A" text-anchor="middle">MVP Development</text>
            <text x="352" y="478" font-size="13" fill="#64748B" text-anchor="middle">Core features launch</text>
            <text x="352" y="500" font-size="13" fill="#64748B" text-anchor="middle">Alpha testing</text>
        </g>

        <g id="card-3">
            <rect x="446" y="160" width="196" height="144" rx="10" fill="#FFFFFF" stroke="#CBD5E1" stroke-width="1.5"/>
            <rect x="446" y="160" width="196" height="34" rx="10" fill="#2563EB"/>
            <rect x="446" y="184" width="196" height="10" fill="#2563EB"/>
            <text x="544" y="183" font-size="13" font-weight="700" fill="#FFFFFF" text-anchor="middle">2024 Q3</text>
            <text x="544" y="230" font-size="16" font-weight="700" fill="#0F172A" text-anchor="middle">Public Beta</text>
            <text x="544" y="256" font-size="13" fill="#64748B" text-anchor="middle">Open registration</text>
            <text x="544" y="278" font-size="13" fill="#64748B" text-anchor="middle">5,000+ users target</text>
        </g>

        <g id="card-4">
            <rect x="630" y="416" width="212" height="164" rx="10" fill="#FFFFFF" stroke="#2563EB" stroke-width="2.5"/>
            <text x="736" y="572" font-size="13" font-weight="700" fill="#2563EB" text-anchor="middle">2024 Q4</text>
            <text x="650" y="444" font-size="12" font-weight="700" fill="#2563EB" letter-spacing="1">IN PROGRESS</text>
            <text x="736" y="482" font-size="17" font-weight="700" fill="#0F172A" text-anchor="middle">Feature Iteration</text>
            <text x="736" y="508" font-size="13" fill="#64748B" text-anchor="middle">AI integration</text>
            <text x="736" y="530" font-size="13" fill="#64748B" text-anchor="middle">Multi-platform sync</text>
            <line x1="650" y1="550" x2="822" y2="550" stroke="#2563EB" stroke-width="2"/>
        </g>

        <g id="card-5">
            <rect x="830" y="160" width="196" height="144" rx="10" fill="#FFFFFF" stroke="#CBD5E1" stroke-width="1.5"/>
            <line x1="830" y1="194" x2="1026" y2="194" stroke="#CBD5E1" stroke-width="1.5"/>
            <text x="928" y="183" font-size="13" font-weight="700" fill="#64748B" text-anchor="middle">2025 Q2</text>
            <text x="928" y="230" font-size="16" font-weight="700" fill="#334155" text-anchor="middle">Commercialization</text>
            <text x="928" y="256" font-size="13" fill="#64748B" text-anchor="middle">Premium tiers launch</text>
            <text x="928" y="278" font-size="13" fill="#64748B" text-anchor="middle">Marketing campaign</text>
        </g>

        <g id="card-6">
            <rect x="1022" y="416" width="196" height="144" rx="10" fill="#FFFFFF" stroke="#CBD5E1" stroke-width="1.5"/>
            <line x1="1022" y1="526" x2="1218" y2="526" stroke="#CBD5E1" stroke-width="1.5"/>
            <text x="1120" y="549" font-size="13" font-weight="700" fill="#64748B" text-anchor="middle">2026 Q1</text>
            <text x="1120" y="452" font-size="16" font-weight="700" fill="#334155" text-anchor="middle">Scale-up</text>
            <text x="1120" y="478" font-size="13" fill="#64748B" text-anchor="middle">Global expansion</text>
            <text x="1120" y="500" font-size="13" fill="#64748B" text-anchor="middle">Ecosystem building</text>
        </g>
    </g>

    <!-- Status legend -->
    <g id="legend" data-pptx-bounds="60 646 380 28"
       transform="translate(60 658)" font-size="13" fill="#475569">
        <circle cx="8" cy="0" r="7" fill="#2563EB"/>
        <text x="22" y="4">Completed</text>
        <circle cx="130" cy="0" r="7" fill="#FFFFFF" stroke="#2563EB" stroke-width="2"/>
        <text x="144" y="4">In Progress</text>
        <circle cx="260" cy="0" r="7" fill="#FFFFFF" stroke="#94A3B8" stroke-width="2"/>
        <text x="274" y="4">Planned</text>
    </g>

    <!-- Source -->
    <g id="source" data-pptx-bounds="910 680 310 20">
        <text x="1220" y="695" font-size="12" font-weight="600" fill="#94A3B8" text-anchor="end">Data source: Product Management Dept</text>
    </g>
</svg>
