<svg xmlns="http://www.w3.org/2000/svg" viewBox="0 0 1520 420" role="img" aria-label="说人话：中文 AI 味清理 skill — 先保信息，再谈风格">
<!-- Generated banner. Glyph outlines from Noto Sans SC, © Google, SIL Open Font License 1.1. -->
<title>说人话：中文 AI 味清理 skill</title>
<rect x="3" y="3" width="1514" height="414" rx="22" fill="#14161B" stroke="#2C313B" stroke-width="2"/>
<path d="M110.0 65.6H128.1V68.1H110.0ZM108.6 87.4H128.9V89.8H108.6ZM111.4 70.5H126.4V87.9H123.7V72.7H113.9V87.9H111.4ZM113.2 74.8H124.3V76.9H113.2ZM113.2 79.0H124.9V81.0H113.2ZM113.1 83.2H124.3V85.2H113.1ZM117.8 62.7 120.8 62.8Q120.6 64.3 120.2 65.9Q119.9 67.5 119.6 69.0Q119.2 70.4 118.9 71.5L116.4 71.3Q116.7 70.1 117.0 68.6Q117.3 67.1 117.5 65.6Q117.7 64.0 117.8 62.7ZM107.6 62.7 110.2 63.6Q109.2 66.1 108.0 68.6Q106.8 71.1 105.3 73.3Q103.9 75.6 102.3 77.3Q102.2 76.9 101.9 76.4Q101.7 75.9 101.4 75.3Q101.1 74.7 100.8 74.4Q102.2 73.0 103.4 71.1Q104.7 69.2 105.7 67.1Q106.8 64.9 107.6 62.7ZM104.5 70.8 107.1 68.1 107.1 68.1V90.5H104.5Z M146.5 69.6V71.7H155.5V69.6ZM146.5 65.6V67.7H155.5V65.6ZM143.7 63.6H158.3V73.7H143.7ZM142.0 75.5H159.6V77.8H142.0ZM141.3 80.0H160.1V82.5H141.3ZM152.9 77.5H155.8V87.6Q155.8 88.6 155.5 89.2Q155.3 89.8 154.5 90.1Q153.8 90.4 152.6 90.5Q151.5 90.5 149.9 90.5Q149.8 90.0 149.5 89.2Q149.3 88.5 149.0 88.0Q150.1 88.0 151.1 88.0Q152.0 88.0 152.4 88.0Q152.7 88.0 152.8 87.9Q152.9 87.8 152.9 87.5ZM143.6 84.0 145.6 82.6Q146.6 83.6 147.7 84.7Q148.8 85.9 149.4 86.7L147.2 88.3Q146.9 87.7 146.3 86.9Q145.7 86.2 145.0 85.4Q144.3 84.6 143.6 84.0ZM139.4 69.3 141.9 70.4Q140.9 72.2 139.5 74.0Q138.1 75.8 136.5 77.4Q135.0 79.0 133.4 80.2Q133.3 79.8 133.1 79.3Q132.8 78.8 132.6 78.2Q132.3 77.7 132.0 77.3Q133.4 76.4 134.7 75.1Q136.1 73.8 137.3 72.3Q138.5 70.8 139.4 69.3ZM138.8 62.7 141.5 63.8Q140.5 65.1 139.3 66.5Q138.0 67.9 136.7 69.1Q135.3 70.3 133.9 71.2Q133.7 70.8 133.5 70.4Q133.2 69.9 132.9 69.5Q132.7 69.1 132.4 68.8Q133.6 68.0 134.8 67.0Q136.1 66.0 137.1 64.9Q138.1 63.8 138.8 62.7ZM136.6 75.2 139.3 72.6 139.4 72.7V90.5H136.6Z M174.4 77.2H190.1V79.9H174.4ZM172.3 86.9H192.0V89.6H172.3ZM173.2 68.3H191.2V71.0H173.2ZM180.8 69.9H183.8V88.1H180.8ZM165.8 65.1 167.4 63.0Q168.3 63.4 169.4 64.0Q170.5 64.5 171.4 65.1Q172.4 65.7 173.1 66.1L171.4 68.5Q170.8 68.0 169.9 67.4Q168.9 66.8 167.8 66.1Q166.7 65.5 165.8 65.1ZM164.2 73.4 165.7 71.3Q166.6 71.7 167.7 72.2Q168.7 72.8 169.7 73.3Q170.7 73.9 171.3 74.3L169.7 76.7Q169.1 76.2 168.2 75.6Q167.2 75.1 166.2 74.5Q165.1 73.9 164.2 73.4ZM165.0 88.3Q165.8 87.2 166.8 85.6Q167.8 84.0 168.8 82.2Q169.8 80.4 170.7 78.7L172.8 80.6Q172.0 82.2 171.1 83.9Q170.2 85.6 169.2 87.2Q168.3 88.8 167.4 90.2ZM179.4 63.5 182.0 62.5Q182.7 63.7 183.5 65.0Q184.2 66.4 184.5 67.3L181.8 68.4Q181.5 67.4 180.8 66.0Q180.1 64.6 179.4 63.5Z M203.3 83.5H206.0V87.1Q206.0 87.6 206.4 87.8Q206.7 87.9 207.8 87.9Q208.0 87.9 208.7 87.9Q209.3 87.9 210.1 87.9Q210.9 87.9 211.5 87.9Q212.2 87.9 212.6 87.9Q213.2 87.9 213.5 87.7Q213.8 87.5 213.9 87.0Q214.0 86.4 214.1 85.1Q214.5 85.4 215.3 85.7Q216.0 85.9 216.5 86.0Q216.4 87.7 216.0 88.6Q215.6 89.5 214.9 89.9Q214.1 90.2 212.8 90.2Q212.6 90.2 212.1 90.2Q211.5 90.2 210.8 90.2Q210.2 90.2 209.5 90.2Q208.8 90.2 208.3 90.2Q207.7 90.2 207.5 90.2Q205.8 90.2 204.9 90.0Q204.0 89.7 203.6 89.0Q203.3 88.3 203.3 87.1ZM206.6 83.1 208.2 81.6Q209.0 81.9 209.9 82.5Q210.9 83.0 211.7 83.5Q212.5 84.1 213.0 84.6L211.3 86.3Q210.8 85.8 210.0 85.3Q209.2 84.7 208.3 84.1Q207.4 83.6 206.6 83.1ZM216.6 83.9 218.8 82.9Q219.6 83.7 220.3 84.6Q221.1 85.5 221.7 86.5Q222.3 87.4 222.7 88.2L220.2 89.3Q219.9 88.5 219.3 87.6Q218.8 86.7 218.0 85.7Q217.3 84.7 216.6 83.9ZM199.7 83.2 202.1 84.2Q201.4 85.6 200.5 87.1Q199.6 88.7 198.4 89.8L196.0 88.4Q197.2 87.4 198.2 86.0Q199.1 84.5 199.7 83.2ZM198.0 64.7H221.0V66.9H198.0ZM196.6 69.5H222.5V71.8H196.6ZM202.4 67.3 205.0 66.8Q205.4 67.5 205.7 68.3Q206.1 69.1 206.2 69.7L203.5 70.3Q203.4 69.7 203.1 68.9Q202.8 68.0 202.4 67.3ZM214.0 66.7 216.9 67.3Q216.4 68.3 215.9 69.1Q215.5 69.9 215.1 70.6L212.6 70.0Q212.9 69.2 213.3 68.3Q213.7 67.4 214.0 66.7ZM202.8 78.4V80.2H216.3V78.4ZM202.8 75.0V76.7H216.3V75.0ZM200.1 73.1H219.2V82.0H200.1ZM207.5 62.9 210.3 62.4Q210.7 63.1 211.2 64.0Q211.6 64.9 211.8 65.6L208.9 66.3Q208.7 65.6 208.3 64.6Q208.0 63.7 207.5 62.9Z M230.1 67.5H239.3V87.4H230.1V84.9H236.7V70.0H230.1ZM228.4 67.5H231.0V89.7H228.4ZM230.0 75.7H238.0V78.2H230.0ZM232.9 62.6 236.0 63.1Q235.5 64.6 234.9 66.0Q234.4 67.5 234.0 68.5L231.7 68.0Q231.9 67.2 232.1 66.3Q232.4 65.4 232.6 64.4Q232.8 63.4 232.9 62.6ZM243.4 67.4H252.4V70.0H243.4ZM251.4 67.4H254.1Q254.1 67.4 254.1 67.6Q254.1 67.9 254.1 68.2Q254.1 68.5 254.0 68.7Q253.9 73.8 253.7 77.4Q253.5 80.9 253.3 83.2Q253.1 85.5 252.8 86.8Q252.5 88.0 252.0 88.6Q251.4 89.4 250.8 89.6Q250.2 89.9 249.4 90.0Q248.6 90.1 247.3 90.1Q246.1 90.1 244.8 90.0Q244.8 89.5 244.5 88.7Q244.3 87.9 243.9 87.3Q245.3 87.4 246.6 87.4Q247.8 87.5 248.3 87.5Q248.8 87.5 249.1 87.4Q249.4 87.3 249.6 87.0Q250.0 86.6 250.3 85.4Q250.6 84.1 250.8 81.9Q250.9 79.7 251.1 76.2Q251.3 72.8 251.4 67.9ZM243.8 62.6 246.5 63.2Q245.9 65.5 245.2 67.6Q244.4 69.8 243.4 71.7Q242.5 73.6 241.5 75.0Q241.2 74.8 240.8 74.5Q240.3 74.2 239.9 73.9Q239.5 73.6 239.1 73.4Q240.1 72.1 241.0 70.4Q241.9 68.6 242.6 66.6Q243.3 64.6 243.8 62.6ZM242.4 75.5 244.6 74.3Q245.4 75.3 246.3 76.6Q247.1 77.8 247.9 79.0Q248.7 80.1 249.2 81.0L246.8 82.5Q246.3 81.6 245.6 80.4Q244.8 79.2 244.0 77.9Q243.1 76.6 242.4 75.5Z M259.3 75.7H285.8V78.2H259.3ZM272.6 81.1H283.9V83.6H272.6ZM271.4 76.9H274.2V88.2H271.4ZM266.0 81.8Q266.9 84.1 268.5 85.3Q270.0 86.5 272.2 86.9Q274.5 87.3 277.3 87.3Q277.7 87.3 278.6 87.3Q279.4 87.3 280.6 87.3Q281.7 87.3 282.9 87.3Q284.0 87.3 285.0 87.3Q286.0 87.3 286.5 87.3Q286.3 87.6 286.1 88.1Q285.9 88.6 285.8 89.1Q285.6 89.6 285.5 90.0H283.7H277.1Q274.5 90.0 272.4 89.7Q270.3 89.4 268.7 88.6Q267.0 87.8 265.8 86.4Q264.6 84.9 263.7 82.6ZM264.1 79.1 267.0 79.5Q266.3 83.2 264.6 86.0Q263.0 88.8 260.5 90.6Q260.3 90.3 259.9 89.9Q259.6 89.5 259.1 89.2Q258.7 88.8 258.4 88.6Q260.7 87.1 262.2 84.7Q263.6 82.2 264.1 79.1ZM265.0 69.9V71.9H279.8V69.9ZM265.0 65.9V67.9H279.8V65.9ZM262.2 63.8H282.7V74.0H262.2Z" fill="#565C66"/>
<g transform="rotate(-1.6 194.5 76.6)"><line x1="93.0" y1="76.6" x2="296.0" y2="76.6" stroke="#E05C48" stroke-width="4.5" stroke-linecap="round"/></g>
<path d="M352.9 69.8H369.9V72.2H352.9ZM358.9 77.7H362.7V80.2H358.9ZM354.2 64.8H361.8V67.2H354.2ZM362.6 62.7H365.1Q365.1 66.0 365.2 69.1Q365.2 72.3 365.4 75.1Q365.6 77.9 365.8 80.3Q366.1 82.6 366.4 84.4Q366.7 86.1 367.1 87.1Q367.4 88.0 367.8 88.0Q368.1 88.0 368.2 86.8Q368.4 85.5 368.4 83.0Q368.8 83.4 369.3 83.8Q369.9 84.2 370.3 84.4Q370.2 86.8 369.9 88.1Q369.5 89.4 369.0 90.0Q368.4 90.5 367.4 90.5Q366.4 90.5 365.7 89.4Q364.9 88.3 364.4 86.3Q363.9 84.3 363.6 81.7Q363.3 79.0 363.1 75.9Q362.9 72.8 362.8 69.4Q362.7 66.1 362.6 62.7ZM365.4 64.3 367.4 63.5Q368.1 64.4 368.9 65.5Q369.6 66.7 369.9 67.5L367.8 68.5Q367.5 67.6 366.8 66.4Q366.2 65.3 365.4 64.3ZM358.0 73.2H360.2V87.1H358.0ZM353.9 75.0H356.1V87.4H353.9ZM352.3 87.1Q353.7 86.8 355.5 86.5Q357.3 86.2 359.3 85.8Q361.3 85.4 363.3 85.0L363.5 87.3Q360.7 87.9 357.9 88.5Q355.1 89.1 352.9 89.6ZM346.5 68.8H348.8V77.0Q348.8 78.6 348.6 80.4Q348.4 82.1 347.9 83.9Q347.4 85.7 346.4 87.4Q345.4 89.0 343.6 90.3Q343.4 89.9 342.9 89.4Q342.4 88.9 342.0 88.6Q343.6 87.5 344.5 86.1Q345.4 84.6 345.8 83.0Q346.3 81.4 346.4 79.9Q346.5 78.3 346.5 76.9ZM347.7 84.0 349.6 83.0Q350.2 83.7 350.7 84.6Q351.2 85.5 351.7 86.4Q352.2 87.2 352.5 87.9L350.4 89.1Q350.2 88.4 349.8 87.6Q349.3 86.7 348.8 85.7Q348.3 84.8 347.7 84.0ZM343.1 64.3H352.2V82.3H350.1V66.9H345.1V82.4H343.1Z M375.4 73.4H384.9V75.8H378.0V90.5H375.4ZM383.6 73.4H386.4V87.5Q386.4 88.5 386.1 89.0Q385.9 89.6 385.2 90.0Q384.5 90.3 383.5 90.4Q382.5 90.4 381.1 90.4Q381.0 89.9 380.7 89.1Q380.5 88.4 380.2 87.9Q381.1 87.9 381.9 87.9Q382.8 87.9 383.1 87.9Q383.4 87.9 383.5 87.8Q383.6 87.7 383.6 87.4ZM376.6 77.9H385.1V80.1H376.6ZM376.6 82.4H385.1V84.6H376.6ZM389.0 62.8H391.8V72.3Q391.8 73.0 392.0 73.3Q392.3 73.5 393.3 73.5Q393.5 73.5 394.0 73.5Q394.6 73.5 395.2 73.5Q395.9 73.5 396.5 73.5Q397.1 73.5 397.4 73.5Q397.9 73.5 398.2 73.2Q398.5 73.0 398.6 72.3Q398.7 71.6 398.8 70.1Q399.2 70.5 400.0 70.8Q400.7 71.1 401.3 71.2Q401.2 73.1 400.8 74.1Q400.4 75.2 399.7 75.6Q398.9 76.0 397.6 76.0Q397.4 76.0 397.0 76.0Q396.5 76.0 395.9 76.0Q395.3 76.0 394.7 76.0Q394.0 76.0 393.6 76.0Q393.1 76.0 392.9 76.0Q391.4 76.0 390.5 75.7Q389.6 75.3 389.3 74.5Q389.0 73.7 389.0 72.3ZM398.1 64.8 399.9 66.8Q398.6 67.5 397.1 68.0Q395.5 68.6 393.9 69.1Q392.3 69.6 390.7 70.1Q390.7 69.7 390.4 69.1Q390.2 68.5 389.9 68.1Q391.4 67.6 392.9 67.1Q394.4 66.5 395.7 65.9Q397.1 65.3 398.1 64.8ZM389.0 76.7H391.8V86.6Q391.8 87.4 392.1 87.6Q392.4 87.8 393.3 87.8Q393.6 87.8 394.1 87.8Q394.7 87.8 395.4 87.8Q396.1 87.8 396.7 87.8Q397.3 87.8 397.6 87.8Q398.1 87.8 398.4 87.5Q398.7 87.2 398.9 86.4Q399.0 85.6 399.1 84.0Q399.5 84.3 400.3 84.6Q401.0 84.9 401.6 85.0Q401.4 87.1 401.0 88.2Q400.7 89.4 399.9 89.8Q399.1 90.3 397.8 90.3Q397.6 90.3 397.1 90.3Q396.6 90.3 396.0 90.3Q395.4 90.3 394.8 90.3Q394.2 90.3 393.7 90.3Q393.2 90.3 393.0 90.3Q391.4 90.3 390.5 90.0Q389.7 89.6 389.3 88.8Q389.0 88.0 389.0 86.6ZM398.4 78.2 400.3 80.3Q399.0 81.0 397.4 81.7Q395.7 82.3 394.0 82.9Q392.3 83.4 390.7 83.9Q390.6 83.5 390.4 82.9Q390.1 82.3 389.9 81.9Q391.4 81.4 393.0 80.8Q394.6 80.2 396.0 79.5Q397.4 78.9 398.4 78.2ZM381.8 65.4 384.1 64.5Q384.9 65.5 385.6 66.7Q386.3 67.9 386.9 69.0Q387.5 70.1 387.8 71.1L385.3 72.1Q385.0 71.2 384.4 70.0Q383.9 68.9 383.2 67.7Q382.5 66.4 381.8 65.4ZM375.1 71.6Q375.0 71.3 374.8 70.8Q374.6 70.4 374.5 69.8Q374.3 69.3 374.1 68.9Q374.5 68.9 374.8 68.5Q375.1 68.2 375.5 67.8Q375.8 67.4 376.3 66.7Q376.8 65.9 377.4 64.8Q378.0 63.7 378.5 62.6L381.5 63.4Q380.8 64.7 380.0 65.9Q379.2 67.1 378.4 68.2Q377.6 69.3 376.8 70.1V70.2Q376.8 70.2 376.5 70.3Q376.3 70.5 375.9 70.7Q375.6 70.9 375.3 71.2Q375.1 71.4 375.1 71.6ZM375.1 71.6 375.0 69.7 376.3 68.9 385.9 68.3Q385.8 68.8 385.7 69.4Q385.6 70.1 385.6 70.5Q383.0 70.7 381.3 70.8Q379.5 71.0 378.4 71.1Q377.2 71.2 376.6 71.3Q376.0 71.4 375.6 71.5Q375.3 71.5 375.1 71.6Z" fill="#565C66"/>
<g transform="rotate(-2.4 372.5 76.6)"><line x1="334.0" y1="76.6" x2="411.0" y2="76.6" stroke="#E05C48" stroke-width="4.5" stroke-linecap="round"/></g>
<path d="M468.6 69.4H482.7V80.5H468.2V78.1H480.2V71.8H468.6ZM471.2 64.7H479.5V66.9H471.2ZM468.9 73.8H481.1V76.0H468.9ZM471.9 62.5 474.5 63.0Q473.5 65.2 471.8 67.3Q470.2 69.4 467.8 71.2Q467.7 70.9 467.4 70.5Q467.1 70.2 466.8 69.8Q466.5 69.5 466.2 69.3Q468.3 67.9 469.7 66.0Q471.1 64.2 471.9 62.5ZM478.7 64.7H479.3L479.7 64.6L481.4 65.7Q480.9 66.6 480.3 67.6Q479.6 68.6 478.9 69.6Q478.2 70.5 477.6 71.2Q477.2 70.9 476.7 70.6Q476.1 70.2 475.7 70.0Q476.2 69.4 476.8 68.5Q477.4 67.7 477.9 66.8Q478.5 65.9 478.7 65.2ZM470.6 82.4H473.2V87.0Q473.2 87.5 473.4 87.7Q473.6 87.8 474.4 87.8Q474.6 87.8 475.0 87.8Q475.5 87.8 476.0 87.8Q476.6 87.8 477.1 87.8Q477.6 87.8 477.8 87.8Q478.3 87.8 478.5 87.6Q478.7 87.4 478.8 86.8Q478.9 86.2 479.0 84.9Q479.4 85.2 480.0 85.5Q480.7 85.7 481.2 85.9Q481.1 87.5 480.8 88.4Q480.5 89.3 479.8 89.7Q479.2 90.1 478.1 90.1Q477.9 90.1 477.3 90.1Q476.7 90.1 476.1 90.1Q475.4 90.1 474.9 90.1Q474.3 90.1 474.1 90.1Q472.7 90.1 471.9 89.8Q471.2 89.5 470.9 88.8Q470.6 88.2 470.6 87.0ZM473.7 81.7 475.7 80.6Q476.5 81.5 477.3 82.5Q478.2 83.5 478.7 84.2L476.6 85.5Q476.2 84.7 475.3 83.7Q474.5 82.6 473.7 81.7ZM480.2 82.8 482.4 82.1Q482.9 83.0 483.4 84.1Q483.9 85.2 484.4 86.2Q484.8 87.2 485.1 87.9L482.7 88.7Q482.5 88.0 482.1 87.0Q481.7 85.9 481.2 84.8Q480.7 83.7 480.2 82.8ZM467.8 82.3 470.0 83.3Q469.6 84.2 469.2 85.2Q468.8 86.3 468.4 87.3Q467.9 88.3 467.5 89.2L465.2 88.0Q465.7 87.2 466.2 86.2Q466.7 85.2 467.1 84.2Q467.5 83.2 467.8 82.3ZM461.6 65.2H464.3V90.5H461.6ZM457.6 71.2H467.5V73.9H457.6ZM461.7 72.3 463.4 73.0Q463.0 74.6 462.5 76.3Q461.9 78.1 461.3 79.8Q460.6 81.5 459.8 83.0Q459.1 84.4 458.3 85.5Q458.1 84.9 457.6 84.1Q457.2 83.3 456.8 82.8Q457.8 81.5 458.8 79.7Q459.7 78.0 460.5 76.0Q461.2 74.0 461.7 72.3ZM465.8 62.9 467.6 65.2Q466.3 65.7 464.8 66.1Q463.2 66.6 461.6 66.9Q460.1 67.2 458.6 67.4Q458.5 67.0 458.2 66.3Q458.0 65.7 457.7 65.3Q459.2 65.0 460.7 64.6Q462.1 64.2 463.5 63.8Q464.8 63.3 465.8 62.9ZM464.1 74.3Q464.4 74.5 464.9 75.2Q465.4 75.8 466.0 76.6Q466.6 77.4 467.1 78.0Q467.6 78.7 467.8 79.0L466.1 81.3Q465.8 80.8 465.4 80.0Q465.0 79.2 464.5 78.3Q464.1 77.4 463.6 76.7Q463.2 75.9 462.9 75.5Z M500.1 69.4H514.2V80.5H499.7V78.1H511.7V71.8H500.1ZM502.7 64.7H511.0V66.9H502.7ZM500.4 73.8H512.6V76.0H500.4ZM503.4 62.5 506.0 63.0Q505.0 65.2 503.3 67.3Q501.7 69.4 499.3 71.2Q499.2 70.9 498.9 70.5Q498.6 70.2 498.3 69.8Q498.0 69.5 497.7 69.3Q499.8 67.9 501.2 66.0Q502.6 64.2 503.4 62.5ZM510.2 64.7H510.8L511.2 64.6L512.9 65.7Q512.4 66.6 511.8 67.6Q511.1 68.6 510.4 69.6Q509.7 70.5 509.1 71.2Q508.7 70.9 508.2 70.6Q507.6 70.2 507.2 70.0Q507.7 69.4 508.3 68.5Q508.9 67.7 509.4 66.8Q510.0 65.9 510.2 65.2ZM502.1 82.4H504.7V87.0Q504.7 87.5 504.9 87.7Q505.1 87.8 505.9 87.8Q506.1 87.8 506.5 87.8Q507.0 87.8 507.5 87.8Q508.1 87.8 508.6 87.8Q509.1 87.8 509.3 87.8Q509.8 87.8 510.0 87.6Q510.2 87.4 510.3 86.8Q510.4 86.2 510.5 84.9Q510.9 85.2 511.5 85.5Q512.2 85.7 512.7 85.9Q512.6 87.5 512.3 88.4Q512.0 89.3 511.3 89.7Q510.7 90.1 509.6 90.1Q509.4 90.1 508.8 90.1Q508.2 90.1 507.6 90.1Q506.9 90.1 506.4 90.1Q505.8 90.1 505.6 90.1Q504.2 90.1 503.4 89.8Q502.7 89.5 502.4 88.8Q502.1 88.2 502.1 87.0ZM505.2 81.7 507.2 80.6Q508.0 81.5 508.8 82.5Q509.7 83.5 510.2 84.2L508.1 85.5Q507.7 84.7 506.8 83.7Q506.0 82.6 505.2 81.7ZM511.7 82.8 513.9 82.1Q514.4 83.0 514.9 84.1Q515.4 85.2 515.9 86.2Q516.3 87.2 516.6 87.9L514.2 88.7Q514.0 88.0 513.6 87.0Q513.2 85.9 512.7 84.8Q512.2 83.7 511.7 82.8ZM499.3 82.3 501.5 83.3Q501.1 84.2 500.7 85.2Q500.3 86.3 499.9 87.3Q499.4 88.3 499.0 89.2L496.7 88.0Q497.2 87.2 497.7 86.2Q498.2 85.2 498.6 84.2Q499.0 83.2 499.3 82.3ZM493.1 65.2H495.8V90.5H493.1ZM489.1 71.2H499.0V73.9H489.1ZM493.2 72.3 494.9 73.0Q494.5 74.6 494.0 76.3Q493.4 78.1 492.8 79.8Q492.1 81.5 491.3 83.0Q490.6 84.4 489.8 85.5Q489.6 84.9 489.1 84.1Q488.7 83.3 488.3 82.8Q489.3 81.5 490.3 79.7Q491.2 78.0 492.0 76.0Q492.7 74.0 493.2 72.3ZM497.3 62.9 499.1 65.2Q497.8 65.7 496.3 66.1Q494.7 66.6 493.1 66.9Q491.6 67.2 490.1 67.4Q490.0 67.0 489.7 66.3Q489.5 65.7 489.2 65.3Q490.7 65.0 492.2 64.6Q493.6 64.2 495.0 63.8Q496.3 63.3 497.3 62.9ZM495.6 74.3Q495.9 74.5 496.4 75.2Q496.9 75.8 497.5 76.6Q498.1 77.4 498.6 78.0Q499.1 78.7 499.3 79.0L497.6 81.3Q497.3 80.8 496.9 80.0Q496.5 79.2 496.0 78.3Q495.6 77.4 495.1 76.7Q494.7 75.9 494.4 75.5Z M519.7 78.3Q521.4 77.9 523.8 77.2Q526.2 76.5 528.6 75.8L529.0 78.4Q526.8 79.1 524.5 79.8Q522.3 80.5 520.4 81.0ZM520.2 68.6H528.9V71.2H520.2ZM523.5 62.7H526.1V87.3Q526.1 88.3 525.9 88.9Q525.7 89.5 525.1 89.9Q524.5 90.2 523.6 90.3Q522.6 90.4 521.3 90.4Q521.2 89.9 521.0 89.1Q520.8 88.3 520.5 87.7Q521.4 87.8 522.1 87.8Q522.8 87.8 523.0 87.8Q523.5 87.8 523.5 87.3ZM530.5 65.6H546.9V68.1H530.5ZM529.5 72.6H547.6V75.0H529.5ZM532.6 69.0 534.8 68.1Q535.4 69.0 536.0 70.0Q536.6 71.0 536.8 71.8L534.5 72.8Q534.3 72.0 533.7 70.9Q533.2 69.8 532.6 69.0ZM541.8 68.2 544.4 68.9Q543.7 70.1 543.0 71.4Q542.3 72.6 541.7 73.4L539.4 72.7Q539.8 72.1 540.3 71.3Q540.7 70.5 541.1 69.7Q541.5 68.8 541.8 68.2ZM529.1 78.0H548.0V80.5H529.1ZM541.8 79.8 544.5 80.2Q543.9 82.6 542.7 84.3Q541.6 86.1 539.8 87.3Q538.1 88.4 535.6 89.2Q533.1 90.0 529.7 90.5Q529.6 89.9 529.3 89.2Q529.0 88.5 528.6 88.1Q532.6 87.7 535.3 86.8Q538.0 85.8 539.5 84.1Q541.1 82.5 541.8 79.8ZM530.8 84.0Q531.7 82.9 532.7 81.3Q533.7 79.8 534.6 78.2Q535.5 76.5 536.2 75.0L538.8 75.5Q538.1 77.1 537.2 78.7Q536.3 80.3 535.4 81.8Q534.4 83.3 533.6 84.4ZM530.8 84.0 532.4 82.1Q534.3 82.7 536.3 83.4Q538.4 84.1 540.4 85.0Q542.4 85.8 544.2 86.7Q545.9 87.6 547.2 88.4L545.4 90.6Q544.2 89.8 542.5 88.9Q540.8 88.0 538.8 87.1Q536.9 86.2 534.8 85.4Q532.7 84.6 530.8 84.0ZM536.0 63.3 538.6 62.9Q539.2 63.8 539.7 64.8Q540.3 65.9 540.5 66.6L537.8 67.2Q537.5 66.4 537.0 65.3Q536.5 64.2 536.0 63.3Z M566.9 63.5 569.5 62.5Q570.2 63.7 571.0 65.0Q571.7 66.4 572.0 67.3L569.3 68.4Q569.0 67.4 568.3 66.0Q567.6 64.6 566.9 63.5ZM558.6 62.8 561.3 63.6Q560.4 66.2 559.1 68.7Q557.7 71.3 556.2 73.5Q554.6 75.7 553.0 77.4Q552.9 77.1 552.6 76.5Q552.3 75.9 552.0 75.4Q551.7 74.8 551.4 74.5Q552.8 73.0 554.2 71.2Q555.5 69.3 556.7 67.2Q557.8 65.0 558.6 62.8ZM555.5 70.8 558.3 67.9 558.3 68.0V90.5H555.5ZM560.8 68.5H579.1V71.2H560.8ZM561.8 77.2H578.2V79.9H561.8ZM560.0 86.8H579.5V89.5H560.0ZM568.5 69.4H571.3V88.5H568.5Z" fill="#565C66"/>
<g transform="rotate(-1.2 519.0 76.6)"><line x1="449.0" y1="76.6" x2="589.0" y2="76.6" stroke="#E05C48" stroke-width="4.5" stroke-linecap="round"/></g>
<path d="M648.6 71.7H659.7V74.2H648.6ZM645.7 77.2H662.5V79.7H645.7ZM646.0 66.3H662.4V71.6H659.5V68.7H648.7V71.6H646.0ZM652.9 78.3H655.7V87.5Q655.7 88.5 655.5 89.1Q655.3 89.7 654.6 90.0Q653.9 90.3 652.9 90.3Q651.9 90.4 650.4 90.4Q650.4 89.8 650.1 89.1Q649.9 88.4 649.6 87.9Q650.6 87.9 651.4 87.9Q652.2 87.9 652.4 87.9Q652.9 87.9 652.9 87.5ZM648.6 81.3 651.2 82.2Q650.6 83.3 649.8 84.6Q649.0 85.8 648.1 86.9Q647.3 88.0 646.5 88.9Q646.3 88.6 645.8 88.3Q645.4 88.0 645.0 87.7Q644.6 87.4 644.2 87.2Q645.4 86.1 646.6 84.5Q647.8 82.9 648.6 81.3ZM657.2 82.3 659.6 81.3Q660.3 82.3 661.0 83.4Q661.7 84.5 662.3 85.6Q662.9 86.6 663.3 87.5L660.7 88.6Q660.4 87.8 659.8 86.7Q659.2 85.6 658.5 84.5Q657.8 83.3 657.2 82.3ZM651.9 63.2 654.6 62.5Q655.2 63.5 655.7 64.6Q656.2 65.8 656.5 66.7L653.6 67.5Q653.4 66.6 652.9 65.4Q652.4 64.2 651.9 63.2ZM636.0 82.7Q636.0 82.4 635.8 82.0Q635.7 81.6 635.5 81.1Q635.3 80.6 635.2 80.3Q635.7 80.2 636.3 79.7Q636.8 79.2 637.5 78.4Q637.9 78.0 638.6 77.0Q639.3 76.1 640.2 74.8Q641.0 73.5 641.9 72.1Q642.8 70.6 643.6 69.0L645.8 70.4Q644.1 73.4 642.0 76.3Q639.9 79.2 637.8 81.4V81.4Q637.8 81.4 637.5 81.5Q637.3 81.7 636.9 81.9Q636.6 82.1 636.3 82.3Q636.0 82.5 636.0 82.7ZM636.0 82.7 635.9 80.5 637.1 79.6 644.8 78.3Q644.8 78.8 644.7 79.5Q644.7 80.2 644.8 80.6Q642.1 81.1 640.5 81.5Q638.9 81.8 638.0 82.0Q637.1 82.3 636.7 82.4Q636.3 82.6 636.0 82.7ZM635.8 75.4Q635.7 75.2 635.6 74.7Q635.4 74.2 635.3 73.8Q635.1 73.3 634.9 72.9Q635.4 72.8 635.8 72.3Q636.1 71.8 636.6 71.1Q636.9 70.7 637.3 69.9Q637.8 69.0 638.4 67.9Q639.0 66.7 639.5 65.4Q640.1 64.0 640.5 62.7L643.0 63.9Q642.3 65.7 641.3 67.5Q640.4 69.3 639.4 71.0Q638.4 72.7 637.3 74.0V74.1Q637.3 74.1 637.1 74.2Q636.9 74.4 636.6 74.6Q636.3 74.8 636.0 75.0Q635.8 75.2 635.8 75.4ZM635.8 75.4 635.7 73.5 636.9 72.7 642.2 72.2Q642.1 72.7 642.0 73.4Q642.0 74.0 642.0 74.4Q640.2 74.6 639.1 74.8Q637.9 74.9 637.3 75.0Q636.7 75.2 636.3 75.2Q636.0 75.3 635.8 75.4ZM635.2 86.2Q637.0 85.8 639.6 85.3Q642.2 84.7 645.0 84.0L645.2 86.4Q642.7 87.1 640.2 87.7Q637.7 88.4 635.7 88.9Z M679.6 72.1H692.0V74.9H679.6ZM666.9 86.2H694.1V89.1H666.9ZM678.0 63.1H681.0V87.8H678.0Z M714.2 72.8H725.9V75.5H714.2ZM719.9 74.7H722.7V90.4H719.9ZM699.8 65.5H702.6V76.2Q702.6 77.8 702.5 79.7Q702.4 81.6 702.1 83.6Q701.9 85.5 701.4 87.3Q700.8 89.2 700.0 90.6Q699.8 90.4 699.3 90.0Q698.9 89.6 698.5 89.3Q698.0 89.0 697.7 88.8Q698.7 87.0 699.1 84.8Q699.6 82.7 699.7 80.4Q699.8 78.2 699.8 76.2ZM723.5 63.0 725.4 65.5Q723.8 66.1 721.9 66.5Q719.9 67.0 717.8 67.4Q715.8 67.7 713.8 68.0Q713.8 67.5 713.5 66.8Q713.3 66.1 713.0 65.6Q714.9 65.3 716.8 64.9Q718.8 64.5 720.5 64.1Q722.3 63.6 723.5 63.0ZM701.3 70.2H710.5V79.6H701.3V77.1H707.8V72.8H701.3ZM710.0 63.3 711.9 65.7Q710.3 66.2 708.4 66.7Q706.5 67.1 704.5 67.4Q702.4 67.7 700.6 67.9Q700.5 67.3 700.3 66.7Q700.0 66.0 699.8 65.5Q701.6 65.3 703.5 65.0Q705.4 64.6 707.1 64.2Q708.8 63.8 710.0 63.3ZM713.0 65.6H715.9V75.3Q715.9 77.1 715.7 79.1Q715.5 81.2 715.0 83.2Q714.5 85.3 713.6 87.2Q712.6 89.1 711.0 90.6Q710.8 90.3 710.4 90.0Q710.0 89.6 709.6 89.2Q709.1 88.9 708.8 88.7Q710.2 87.3 711.1 85.6Q711.9 84.0 712.3 82.2Q712.7 80.4 712.9 78.7Q713.0 76.9 713.0 75.3Z M738.1 68.3H756.8V71.0H738.1ZM750.0 64.4 752.2 63.1Q752.8 63.6 753.5 64.3Q754.2 64.9 754.8 65.6Q755.4 66.2 755.8 66.7L753.5 68.2Q753.2 67.7 752.6 67.0Q752.0 66.4 751.3 65.7Q750.6 65.0 750.0 64.4ZM746.0 63.0H748.9V85.8H746.0ZM736.6 73.4V85.4H733.9V76.0H729.8V73.4ZM730.2 65.2 732.5 63.9Q733.3 64.7 734.2 65.7Q735.0 66.7 735.8 67.7Q736.6 68.6 737.0 69.4L734.6 70.9Q734.2 70.1 733.5 69.2Q732.8 68.2 731.9 67.1Q731.0 66.1 730.2 65.2ZM735.4 84.2Q736.2 84.2 737.0 84.7Q737.7 85.2 739.0 85.9Q740.5 86.7 742.4 86.9Q744.4 87.2 746.8 87.2Q748.4 87.2 750.4 87.1Q752.3 87.0 754.2 86.9Q756.1 86.7 757.5 86.6Q757.4 86.9 757.2 87.4Q757.0 88.0 756.9 88.5Q756.7 89.0 756.7 89.4Q755.9 89.5 754.7 89.5Q753.5 89.6 752.0 89.6Q750.6 89.7 749.2 89.7Q747.8 89.7 746.7 89.7Q744.1 89.7 742.0 89.4Q740.0 89.1 738.4 88.2Q737.4 87.7 736.7 87.2Q736.0 86.7 735.4 86.7Q734.9 86.7 734.2 87.2Q733.5 87.6 732.8 88.4Q732.0 89.2 731.3 90.1L729.5 87.7Q731.1 86.2 732.6 85.2Q734.2 84.2 735.4 84.2ZM745.2 69.4 747.5 70.0Q746.7 72.7 745.4 75.4Q744.2 78.0 742.7 80.1Q741.2 82.3 739.5 83.8Q739.3 83.5 738.9 83.1Q738.6 82.7 738.2 82.3Q737.9 81.9 737.5 81.7Q739.1 80.4 740.6 78.5Q742.1 76.5 743.3 74.1Q744.5 71.7 745.2 69.4ZM746.8 71.8 748.8 70.4Q749.9 71.6 751.1 73.0Q752.3 74.4 753.5 75.8Q754.6 77.2 755.5 78.5Q756.5 79.8 757.1 80.9L754.9 82.5Q754.3 81.4 753.4 80.1Q752.5 78.8 751.4 77.3Q750.3 75.9 749.1 74.5Q747.9 73.0 746.8 71.8Z" fill="#565C66"/>
<g transform="rotate(-2.0 697.0 76.6)"><line x1="627.0" y1="76.6" x2="767.0" y2="76.6" stroke="#E05C48" stroke-width="4.5" stroke-linecap="round"/></g>
<path d="M106.3 131.3 123.5 115.8Q128.4 120.0 134.0 125.3Q139.7 130.5 144.9 135.7Q150.1 140.9 153.1 145.1L134.6 162.8Q131.7 158.5 126.9 153.0Q122.1 147.5 116.6 141.7Q111.1 135.9 106.3 131.3ZM99.9 168.1H134.4V193.4H99.9ZM120.7 282.7 113.9 257.1 118.9 249.3 161.3 216.3Q162.2 220.1 163.8 224.7Q165.4 229.3 167.1 233.6Q168.8 237.9 170.2 240.5Q155.8 251.9 146.7 259.3Q137.6 266.7 132.4 271.2Q127.3 275.6 124.7 278.2Q122.1 280.8 120.7 282.7ZM120.7 282.7Q119.6 279.4 117.1 274.7Q114.6 270.1 111.8 265.6Q109.0 261.2 106.5 258.5Q109.1 256.9 112.2 253.9Q115.2 250.9 117.3 246.9Q119.5 242.9 119.5 238.6V168.1H145.8V257.3Q145.8 257.3 143.3 259.0Q140.8 260.7 137.1 263.5Q133.3 266.4 129.5 269.7Q125.7 273.1 123.2 276.5Q120.7 279.9 120.7 282.7ZM164.8 123.4 186.9 114.2Q192.1 120.9 197.0 129.2Q201.9 137.5 203.8 144.1L180.0 154.2Q179.1 149.9 176.7 144.6Q174.3 139.3 171.3 133.7Q168.2 128.2 164.8 123.4ZM225.2 114.3 253.0 122.2Q248.0 132.9 242.8 142.8Q237.6 152.8 233.4 159.7L210.4 152.3Q213.1 147.1 215.9 140.6Q218.8 134.1 221.2 127.2Q223.6 120.4 225.2 114.3ZM184.8 171.7V190.0H229.3V171.7ZM159.9 149.1H255.4V212.6H159.9ZM177.8 208.0H203.8Q203.1 220.4 201.1 231.5Q199.0 242.5 194.6 252.0Q190.1 261.6 181.8 269.2Q173.4 276.9 159.9 282.7Q157.7 278.1 153.4 272.1Q149.0 266.2 144.9 262.8Q155.9 258.5 162.3 252.9Q168.6 247.3 171.7 240.4Q174.8 233.4 176.1 225.3Q177.3 217.2 177.8 208.0ZM213.1 205.1H238.5V250.7Q238.5 255.1 238.8 256.1Q239.1 257.1 240.3 257.1Q240.5 257.1 240.8 257.1Q241.0 257.1 241.4 257.1Q241.7 257.1 242.0 257.1Q242.3 257.1 242.5 257.1Q243.5 257.1 244.1 255.8Q244.6 254.4 244.9 250.1Q245.3 245.7 245.5 237.0Q248.0 238.9 251.9 241.0Q255.8 243.0 260.2 244.6Q264.5 246.1 267.9 247.0Q266.8 260.1 264.2 267.6Q261.5 275.1 257.0 278.0Q252.4 281.0 245.3 281.0Q244.1 281.0 242.8 281.0Q241.6 281.0 240.3 281.0Q239.1 281.0 237.8 281.0Q236.6 281.0 235.3 281.0Q226.1 281.0 221.3 278.1Q216.5 275.3 214.8 268.7Q213.1 262.1 213.1 251.0Z M346.4 113.8H376.3Q375.9 123.8 375.2 136.9Q374.5 149.9 372.4 165.1Q370.2 180.2 365.5 196.0Q360.8 211.9 352.5 227.5Q344.2 243.0 331.5 257.2Q318.8 271.3 300.3 282.7Q296.9 277.6 291.0 271.8Q285.1 266.0 278.6 261.6Q296.5 251.6 308.5 239.1Q320.4 226.7 327.8 212.8Q335.2 198.9 339.0 184.8Q342.8 170.8 344.2 157.5Q345.7 144.2 345.9 133.0Q346.2 121.8 346.4 113.8ZM374.1 135.3Q374.5 139.1 375.4 147.5Q376.3 156.0 378.9 167.3Q381.4 178.6 386.4 191.3Q391.4 204.1 399.7 216.6Q408.0 229.2 420.4 240.2Q432.9 251.2 450.3 259.1Q444.3 263.7 439.2 269.8Q434.1 276.0 431.3 281.5Q412.8 272.6 399.5 259.9Q386.2 247.3 377.4 232.8Q368.6 218.3 363.3 203.6Q357.9 188.9 355.1 175.8Q352.3 162.8 351.0 152.9Q349.8 143.0 349.0 138.2Z M606.6 114.2 623.5 135.2Q612.8 137.8 601.0 140.0Q589.1 142.1 576.7 143.7Q564.2 145.3 551.8 146.4Q539.3 147.5 527.6 148.0Q526.8 143.4 524.8 137.1Q522.8 130.9 520.8 126.8Q532.4 125.9 544.0 124.8Q555.7 123.6 566.9 122.0Q578.1 120.4 588.3 118.4Q598.4 116.5 606.6 114.2ZM517.8 166.7H629.0V191.1H517.8ZM529.0 213.0H622.4V282.2H595.0V236.3H555.0V282.9H529.0ZM542.3 253.7H606.9V277.0H542.3ZM561.4 133.9H587.4V224.5H561.4ZM467.7 131.3 484.3 115.6Q489.1 119.5 494.7 124.4Q500.3 129.3 505.5 134.2Q510.6 139.1 513.9 143.0L496.2 160.8Q493.4 156.7 488.5 151.5Q483.6 146.4 478.1 141.0Q472.6 135.7 467.7 131.3ZM483.4 281.0 477.0 257.5 480.7 250.2 517.1 217.4Q518.8 222.7 521.9 229.4Q524.9 236.1 527.2 239.7Q514.6 251.0 506.6 258.3Q498.5 265.6 493.9 269.9Q489.3 274.2 487.0 276.7Q484.7 279.2 483.4 281.0ZM461.3 168.1H493.9V192.8H461.3ZM483.4 281.0Q482.3 278.1 479.8 274.2Q477.2 270.3 474.3 266.6Q471.5 263.0 469.4 260.8Q471.7 258.9 474.1 255.7Q476.5 252.5 478.2 248.3Q479.9 244.1 479.9 239.5V168.1H504.1V255.0Q504.1 255.0 500.9 257.7Q497.8 260.5 493.7 264.6Q489.6 268.7 486.5 273.1Q483.4 277.6 483.4 281.0Z" fill="#EDEAE2"/>
<path d="M625.1 221.5Q633.4 221.5 640.1 225.5Q646.8 229.5 650.8 236.3Q654.8 243.0 654.8 251.2Q654.8 259.4 650.8 266.2Q646.8 272.9 640.1 276.9Q633.4 281.0 625.0 281.0Q616.9 281.0 610.1 276.9Q603.4 272.9 599.4 266.2Q595.3 259.4 595.3 251.2Q595.3 243.0 599.4 236.3Q603.4 229.5 610.1 225.5Q616.9 221.5 625.1 221.5ZM625.1 266.0Q631.3 266.0 635.6 261.7Q639.8 257.4 639.8 251.2Q639.8 247.1 637.9 243.8Q635.9 240.4 632.5 238.4Q629.2 236.5 625.1 236.5Q621.2 236.5 617.8 238.4Q614.4 240.4 612.3 243.7Q610.3 247.1 610.3 251.2Q610.3 255.3 612.3 258.7Q614.4 262.1 617.7 264.0Q621.1 266.0 625.1 266.0Z" fill="#E05C48"/>
<path d="M103.9 314.0H138.1V334.3H134.0V317.9H107.9V334.5H103.9ZM106.0 328.1H136.3V332.0H106.0ZM118.8 306.5H123.0V345.5H118.8Z M172.8 315.6 176.9 316.8Q174.3 324.4 170.2 330.0Q166.1 335.5 160.3 339.3Q154.5 343.1 146.8 345.4Q146.5 345.0 146.1 344.3Q145.7 343.6 145.2 342.9Q144.7 342.2 144.3 341.7Q151.8 339.7 157.4 336.3Q162.9 332.9 166.7 327.8Q170.6 322.7 172.8 315.6ZM155.0 315.9Q157.3 322.2 161.2 327.4Q165.2 332.5 170.9 336.1Q176.5 339.7 183.8 341.5Q183.4 342.0 182.9 342.6Q182.4 343.3 181.9 344.0Q181.4 344.7 181.1 345.2Q173.5 343.1 167.8 339.2Q162.1 335.3 158.0 329.7Q154.0 324.1 151.3 317.0ZM145.0 313.8H183.2V317.7H145.0ZM160.6 307.4 164.8 306.2Q165.7 307.7 166.6 309.5Q167.5 311.3 167.9 312.6L163.4 314.0Q163.1 312.7 162.3 310.9Q161.4 309.0 160.6 307.4Z M199.6 342.0 209.8 311.1H215.5L225.7 342.0H220.6L215.6 325.2Q214.8 322.7 214.1 320.1Q213.4 317.5 212.7 314.9H212.5Q211.8 317.5 211.1 320.1Q210.3 322.7 209.6 325.2L204.6 342.0ZM205.4 333.2V329.4H219.8V333.2Z M230.8 342.0V311.1H235.7V342.0Z M270.3 323.3H294.5V327.1H270.3ZM271.8 313.2H292.9V317.0H271.8ZM280.0 306.8H284.0V345.5H280.0ZM279.4 325.5 282.5 326.5Q281.2 329.9 279.3 333.1Q277.4 336.2 275.1 338.8Q272.7 341.3 270.1 343.0Q269.8 342.6 269.3 342.0Q268.8 341.4 268.3 340.8Q267.8 340.3 267.4 339.9Q269.9 338.5 272.2 336.2Q274.5 334.0 276.4 331.2Q278.2 328.4 279.4 325.5ZM284.5 325.4Q285.6 328.2 287.3 330.9Q288.9 333.7 290.9 336.0Q292.9 338.3 295.0 339.7Q294.6 340.1 294.0 340.7Q293.4 341.3 292.9 341.9Q292.4 342.5 292.1 343.0Q290.0 341.2 288.0 338.5Q286.0 335.9 284.4 332.7Q282.7 329.6 281.5 326.4ZM259.2 310.3H268.9V335.1H259.2V331.2H265.3V314.1H259.2ZM257.2 310.3H260.8V338.4H257.2Z M315.2 330.6H331.0V333.5H315.2ZM310.7 309.7H335.8V312.6H310.7ZM311.8 314.8H334.7V317.6H311.8ZM309.2 320.0H337.4V323.0H309.2ZM315.2 336.2H331.0V339.1H315.2ZM312.4 325.1H330.9V328.0H316.1V345.5H312.4ZM330.2 325.1H333.9V341.4Q333.9 342.8 333.6 343.6Q333.2 344.4 332.2 344.8Q331.2 345.3 329.7 345.4Q328.2 345.4 326.0 345.4Q325.9 344.7 325.5 343.7Q325.2 342.7 324.9 342.0Q326.3 342.1 327.6 342.1Q329.0 342.1 329.4 342.1Q329.8 342.1 330.0 341.9Q330.2 341.8 330.2 341.4ZM321.1 306.5H325.1V321.0H321.1ZM300.6 310.0 302.9 307.3Q304.1 307.9 305.3 308.6Q306.6 309.4 307.8 310.2Q308.9 310.9 309.7 311.6L307.2 314.7Q306.5 314.0 305.4 313.2Q304.3 312.3 303.0 311.5Q301.7 310.7 300.6 310.0ZM298.6 321.1 300.9 318.2Q302.1 318.8 303.4 319.6Q304.8 320.4 306.0 321.2Q307.2 322.0 308.0 322.7L305.6 325.8Q304.9 325.1 303.7 324.3Q302.5 323.4 301.2 322.6Q299.8 321.7 298.6 321.1ZM299.9 342.5Q300.9 340.9 302.0 338.6Q303.1 336.4 304.2 333.9Q305.3 331.4 306.3 329.0L309.5 331.3Q308.7 333.5 307.7 335.9Q306.6 338.2 305.6 340.5Q304.6 342.8 303.5 344.8Z M361.0 319.6V324.2H375.3V319.6ZM361.0 311.8V316.4H375.3V311.8ZM357.4 308.4H379.1V327.6H357.4ZM357.0 331.9H379.6V335.5H357.0ZM353.9 340.6H381.1V344.2H353.9ZM342.0 309.2H355.5V312.9H342.0ZM342.5 321.3H354.9V325.0H342.5ZM341.6 337.3Q343.3 336.9 345.6 336.2Q347.8 335.5 350.3 334.7Q352.7 333.9 355.2 333.1L355.9 336.9Q352.4 338.1 348.9 339.3Q345.4 340.5 342.5 341.4ZM347.0 310.7H350.8V336.6L347.0 337.3ZM366.5 309.9H369.9V326.0H370.2V342.2H366.2V326.0H366.5Z M406.8 342.6Q404.4 342.6 402.1 341.7Q399.8 340.7 398.1 339.4L400.4 336.2Q401.9 337.4 403.5 338.1Q405.1 338.9 407.0 338.9Q409.0 338.9 410.0 338.0Q411.0 337.1 411.0 335.8Q411.0 334.7 410.2 334.0Q409.5 333.3 408.3 332.8Q407.1 332.3 405.9 331.8Q404.4 331.2 402.9 330.4Q401.4 329.6 400.4 328.3Q399.4 327.0 399.4 325.1Q399.4 323.1 400.4 321.6Q401.4 320.1 403.3 319.2Q405.1 318.3 407.7 318.3Q410.0 318.3 411.9 319.1Q413.8 319.9 415.1 321.0L412.9 324.0Q411.7 323.1 410.4 322.6Q409.2 322.0 407.8 322.0Q405.8 322.0 404.9 322.8Q404.0 323.7 404.0 324.8Q404.0 325.8 404.7 326.5Q405.3 327.1 406.4 327.6Q407.6 328.0 408.8 328.5Q410.0 329.0 411.2 329.5Q412.4 330.1 413.4 330.8Q414.4 331.6 415.0 332.7Q415.6 333.9 415.6 335.5Q415.6 337.4 414.6 339.1Q413.6 340.7 411.6 341.6Q409.7 342.6 406.8 342.6Z M421.7 342.0V308.5H426.5V330.1H426.6L435.6 318.9H441.0L433.2 328.3L441.8 342.0H436.6L430.3 331.5L426.5 336.0V342.0Z M446.8 342.0V318.9H451.7V342.0ZM449.3 314.6Q447.9 314.6 447.1 313.8Q446.3 313.0 446.3 311.6Q446.3 310.4 447.1 309.6Q447.9 308.8 449.3 308.8Q450.6 308.8 451.4 309.6Q452.3 310.4 452.3 311.6Q452.3 313.0 451.4 313.8Q450.6 314.6 449.3 314.6Z M464.7 342.6Q463.0 342.6 461.9 341.8Q460.9 341.1 460.4 339.8Q459.9 338.4 459.9 336.6V308.5H464.8V336.8Q464.8 337.8 465.2 338.2Q465.5 338.6 465.9 338.6Q466.1 338.6 466.3 338.6Q466.4 338.5 466.8 338.5L467.4 342.1Q466.9 342.3 466.3 342.4Q465.7 342.6 464.7 342.6Z M478.3 342.6Q476.5 342.6 475.5 341.8Q474.4 341.1 473.9 339.8Q473.5 338.4 473.5 336.6V308.5H478.3V336.8Q478.3 337.8 478.7 338.2Q479.0 338.6 479.4 338.6Q479.6 338.6 479.8 338.6Q480.0 338.5 480.3 338.5L480.9 342.1Q480.4 342.3 479.8 342.4Q479.2 342.6 478.3 342.6Z M585.7 327.2H589.7V339.6Q589.7 340.6 590.0 340.8Q590.3 341.1 591.4 341.1Q591.7 341.1 592.3 341.1Q592.9 341.1 593.6 341.1Q594.4 341.1 595.0 341.1Q595.7 341.1 596.0 341.1Q596.7 341.1 597.1 340.7Q597.5 340.3 597.6 339.0Q597.7 337.7 597.8 335.0Q598.3 335.4 598.9 335.7Q599.5 336.0 600.2 336.2Q600.9 336.5 601.5 336.6Q601.3 339.9 600.8 341.7Q600.3 343.5 599.2 344.2Q598.2 344.9 596.3 344.9Q596.0 344.9 595.3 344.9Q594.5 344.9 593.6 344.9Q592.7 344.9 591.9 344.9Q591.2 344.9 590.9 344.9Q588.8 344.9 587.7 344.4Q586.5 343.9 586.1 342.8Q585.7 341.6 585.7 339.6ZM563.8 324.3H601.0V328.1H563.8ZM570.7 312.7H597.8V316.5H570.7ZM574.4 327.3H578.6Q578.3 330.4 577.6 333.2Q576.9 335.9 575.6 338.3Q574.2 340.6 571.8 342.5Q569.4 344.4 565.7 345.8Q565.5 345.2 565.0 344.6Q564.6 344.0 564.1 343.3Q563.6 342.7 563.2 342.3Q566.6 341.2 568.7 339.7Q570.8 338.2 572.0 336.2Q573.1 334.3 573.6 332.0Q574.2 329.8 574.4 327.3ZM571.2 307.4 575.2 308.2Q574.5 310.6 573.6 313.2Q572.7 315.9 571.4 318.4Q570.2 320.8 568.8 322.7Q568.3 322.4 567.7 322.0Q567.1 321.7 566.4 321.4Q565.8 321.0 565.3 320.9Q566.7 319.1 567.8 316.8Q569.0 314.4 569.8 312.0Q570.7 309.5 571.2 307.4ZM580.4 306.6H584.4V325.5H580.4Z M629.2 321.2H633.2V345.5H629.2ZM617.4 326.9H644.6V330.6H617.4ZM634.1 328.5Q635.3 330.9 637.2 333.2Q639.1 335.5 641.3 337.5Q643.5 339.5 645.7 340.7Q645.3 341.1 644.8 341.6Q644.2 342.2 643.7 342.8Q643.3 343.4 642.9 343.9Q640.7 342.3 638.5 340.1Q636.2 337.8 634.3 335.1Q632.4 332.4 631.1 329.6ZM628.5 328.2 631.6 329.3Q630.2 332.2 628.2 335.0Q626.1 337.7 623.7 340.0Q621.4 342.3 618.8 343.8Q618.5 343.3 618.0 342.7Q617.6 342.1 617.1 341.6Q616.5 341.0 616.1 340.6Q618.5 339.4 620.9 337.4Q623.3 335.4 625.2 333.0Q627.2 330.6 628.5 328.2ZM624.2 312.0V318.8H638.4V312.0ZM620.4 308.5H642.4V322.3H620.4ZM615.6 306.7 619.3 307.8Q617.9 311.4 616.0 314.9Q614.1 318.4 611.9 321.5Q609.7 324.5 607.4 326.9Q607.2 326.4 606.8 325.7Q606.4 324.9 606.0 324.1Q605.6 323.4 605.2 322.9Q607.3 320.9 609.2 318.3Q611.1 315.7 612.7 312.7Q614.4 309.8 615.6 306.7ZM611.3 317.8 615.1 314.1 615.1 314.1V345.4H611.3Z M663.4 319.5H684.2V322.7H663.4ZM663.4 325.5H684.2V328.7H663.4ZM665.2 340.8H682.3V344.0H665.2ZM660.4 313.3H687.4V316.6H660.4ZM662.8 331.7H684.6V345.4H681.1V334.9H666.2V345.5H662.8ZM670.0 307.8 673.4 306.5Q674.3 307.8 675.2 309.3Q676.1 310.9 676.5 312.0L673.0 313.6Q672.6 312.4 671.7 310.8Q670.9 309.2 670.0 307.8ZM657.7 306.7 661.3 307.8Q660.0 311.3 658.4 314.8Q656.7 318.3 654.7 321.4Q652.8 324.5 650.6 326.9Q650.5 326.4 650.1 325.7Q649.7 325.0 649.3 324.2Q648.9 323.5 648.5 323.0Q650.4 321.0 652.1 318.4Q653.8 315.8 655.2 312.8Q656.7 309.8 657.7 306.7ZM654.2 318.0 657.8 314.3 657.9 314.4V345.7H654.2Z M702.1 319.1V321.9H720.3V319.1ZM702.1 324.8V327.6H720.3V324.8ZM702.1 313.5V316.2H720.3V313.5ZM698.2 310.4H724.3V330.7H698.2ZM709.4 306.1 714.1 306.8Q713.4 308.2 712.7 309.5Q712.0 310.8 711.4 311.7L707.8 311.0Q708.2 309.9 708.7 308.5Q709.1 307.2 709.4 306.1ZM701.2 333.4H705.2V339.8Q705.2 340.7 705.7 340.9Q706.3 341.2 708.2 341.2Q708.6 341.2 709.4 341.2Q710.2 341.2 711.2 341.2Q712.2 341.2 713.3 341.2Q714.3 341.2 715.2 341.2Q716.1 341.2 716.6 341.2Q717.7 341.2 718.2 340.8Q718.7 340.5 718.9 339.5Q719.2 338.5 719.3 336.4Q719.7 336.7 720.4 337.0Q721.0 337.3 721.7 337.5Q722.4 337.7 722.9 337.9Q722.7 340.7 722.1 342.2Q721.5 343.7 720.3 344.2Q719.0 344.8 716.8 344.8Q716.5 344.8 715.6 344.8Q714.7 344.8 713.5 344.8Q712.4 344.8 711.2 344.8Q710.0 344.8 709.1 344.8Q708.2 344.8 707.9 344.8Q705.2 344.8 703.8 344.4Q702.3 343.9 701.7 342.8Q701.2 341.7 701.2 339.8ZM707.8 332.0 710.9 330.2Q711.9 331.2 713.0 332.3Q714.1 333.4 715.0 334.6Q715.9 335.7 716.4 336.7L713.2 338.6Q712.7 337.7 711.8 336.5Q711.0 335.3 709.9 334.1Q708.9 332.9 707.8 332.0ZM722.0 333.8 725.5 332.4Q726.5 333.7 727.5 335.2Q728.4 336.8 729.2 338.3Q729.9 339.8 730.3 341.0L726.5 342.7Q726.2 341.5 725.5 339.9Q724.8 338.4 723.9 336.8Q723.0 335.2 722.0 333.8ZM696.1 333.1 699.6 334.6Q699.1 335.9 698.4 337.5Q697.8 339.2 697.1 340.7Q696.4 342.3 695.6 343.5L692.0 341.8Q692.8 340.6 693.5 339.1Q694.3 337.6 695.0 336.0Q695.7 334.4 696.1 333.1Z M740.6 347.1 739.5 344.3Q742.1 343.4 743.5 341.8Q744.9 340.2 744.9 338.1L744.3 334.3L746.6 337.7Q746.1 338.3 745.5 338.5Q744.9 338.7 744.2 338.7Q742.8 338.7 741.8 337.8Q740.7 337.0 740.7 335.4Q740.7 333.7 741.8 332.9Q742.9 332.0 744.3 332.0Q746.3 332.0 747.3 333.4Q748.3 334.8 748.3 337.2Q748.3 340.7 746.3 343.3Q744.2 345.9 740.6 347.1Z M777.8 331.9H816.9V335.6H777.8ZM779.5 309.0H815.3V312.6H779.5ZM785.4 324.1H809.5V327.5H785.4ZM808.0 316.2H811.9V341.0Q811.9 342.6 811.5 343.5Q811.1 344.4 809.9 344.9Q808.7 345.4 806.9 345.5Q805.0 345.6 802.3 345.6Q802.2 344.8 801.8 343.7Q801.4 342.6 800.9 341.8Q802.2 341.9 803.5 341.9Q804.7 341.9 805.6 341.9Q806.6 341.9 806.9 341.9Q807.5 341.9 807.8 341.7Q808.0 341.5 808.0 340.9ZM782.7 316.2H809.6V319.8H786.7V345.6H782.7ZM795.2 310.1H799.2V333.2H795.2Z M843.9 318.2 846.3 315.6Q848.5 316.6 850.9 318.0Q853.4 319.4 855.6 320.9Q857.8 322.3 859.2 323.5L856.7 326.5Q855.3 325.3 853.2 323.8Q851.0 322.3 848.6 320.8Q846.1 319.3 843.9 318.2ZM844.6 306.6H848.5Q848.4 310.7 847.9 313.9Q847.4 317.1 846.1 319.6Q844.8 322.0 842.4 323.7Q840.0 325.5 836.0 326.6Q835.8 326.2 835.4 325.6Q835.0 325.0 834.6 324.4Q834.2 323.8 833.8 323.4Q837.4 322.5 839.5 321.1Q841.6 319.7 842.7 317.6Q843.7 315.6 844.1 312.9Q844.5 310.1 844.6 306.6ZM837.8 309.3 841.2 310.0Q840.7 312.1 839.7 314.3Q838.7 316.5 837.4 318.0L834.1 316.7Q835.2 315.4 836.2 313.3Q837.2 311.3 837.8 309.3ZM837.5 327.5 841.1 328.2Q840.6 330.4 839.6 332.7Q838.7 335.1 837.4 336.7L834.0 335.2Q835.2 333.8 836.1 331.7Q837.0 329.6 837.5 327.5ZM854.4 309.0 858.4 310.4Q857.2 312.3 855.8 314.2Q854.5 316.1 853.4 317.4L850.3 316.2Q851.0 315.2 851.8 314.0Q852.5 312.7 853.2 311.4Q853.9 310.1 854.4 309.0ZM854.8 327.3 858.9 328.6Q857.7 330.7 856.2 332.9Q854.8 335.0 853.6 336.5L850.4 335.3Q851.2 334.2 852.0 332.8Q852.8 331.4 853.6 330.0Q854.3 328.5 854.8 327.3ZM844.6 324.1H848.5Q848.4 328.5 847.8 332.0Q847.3 335.4 845.9 338.0Q844.4 340.6 841.7 342.4Q839.0 344.2 834.4 345.4Q834.2 344.9 833.8 344.3Q833.4 343.6 833.0 343.0Q832.5 342.4 832.1 342.0Q836.3 341.0 838.8 339.6Q841.2 338.1 842.4 335.9Q843.6 333.8 844.0 330.9Q844.5 328.0 844.6 324.1ZM847.9 329.8Q848.7 333.0 850.2 335.5Q851.7 338.0 854.2 339.7Q856.7 341.4 860.4 342.0Q860.0 342.4 859.6 343.0Q859.1 343.6 858.7 344.3Q858.3 344.9 858.0 345.4Q854.1 344.5 851.4 342.4Q848.7 340.4 847.1 337.3Q845.5 334.3 844.6 330.2ZM824.1 310.0 826.9 307.8Q828.0 308.6 829.1 309.6Q830.3 310.7 831.3 311.7Q832.3 312.7 832.9 313.5L830.0 316.0Q829.4 315.2 828.4 314.1Q827.4 313.1 826.3 312.0Q825.2 310.9 824.1 310.0ZM827.2 344.9 826.4 341.2 827.2 339.8 833.2 335.3Q833.5 336.1 833.8 337.1Q834.2 338.1 834.6 338.6Q832.4 340.3 831.1 341.4Q829.7 342.5 828.9 343.1Q828.1 343.8 827.8 344.2Q827.4 344.6 827.2 344.9ZM821.1 319.6H829.3V323.4H821.1ZM827.2 344.9Q827.0 344.5 826.6 343.9Q826.3 343.4 825.8 342.9Q825.4 342.4 825.1 342.1Q825.7 341.6 826.4 340.5Q827.2 339.4 827.2 337.8V319.6H830.9V340.3Q830.9 340.3 830.5 340.6Q830.1 340.9 829.6 341.5Q829.0 342.0 828.5 342.6Q827.9 343.2 827.6 343.8Q827.2 344.4 827.2 344.9Z M870.5 308.3H895.6V312.1H870.5ZM868.8 308.3H872.9V320.5Q872.9 323.2 872.7 326.5Q872.4 329.8 871.8 333.2Q871.3 336.6 870.1 339.8Q869.0 343.0 867.1 345.7Q866.8 345.2 866.2 344.7Q865.5 344.2 864.9 343.7Q864.2 343.2 863.8 343.0Q865.5 340.5 866.5 337.7Q867.5 334.8 868.0 331.8Q868.5 328.8 868.6 325.9Q868.8 323.0 868.8 320.5ZM893.6 308.3H897.6Q897.5 314.4 897.5 319.5Q897.5 324.6 897.6 328.6Q897.7 332.6 898.0 335.3Q898.2 338.1 898.7 339.5Q899.2 340.9 900.0 340.9Q900.3 340.9 900.5 340.1Q900.6 339.2 900.7 337.8Q900.8 336.3 900.9 334.6Q901.4 335.4 902.1 336.2Q902.8 337.1 903.4 337.6Q903.2 340.3 902.8 342.0Q902.4 343.6 901.7 344.4Q901.0 345.1 899.7 345.1Q897.3 345.1 896.1 342.8Q894.8 340.5 894.3 335.9Q893.8 331.3 893.7 324.4Q893.6 317.5 893.6 308.3ZM874.2 318.1 877.4 316.4Q879.5 318.9 881.8 321.8Q884.0 324.6 886.2 327.5Q888.3 330.3 890.1 333.0Q891.9 335.7 893.1 337.9L889.4 340.0Q888.3 337.9 886.6 335.1Q884.9 332.4 882.8 329.5Q880.7 326.5 878.5 323.6Q876.3 320.7 874.2 318.1ZM887.5 314.9 891.0 315.8Q889.8 319.6 888.1 323.2Q886.4 326.8 884.4 330.1Q882.4 333.3 880.2 336.0Q877.9 338.8 875.4 340.7Q875.0 340.3 874.5 339.7Q874.0 339.1 873.4 338.6Q872.9 338.0 872.4 337.7Q874.9 336.0 877.1 333.5Q879.4 331.0 881.3 327.9Q883.3 324.9 884.9 321.6Q886.4 318.2 887.5 314.9Z M928.7 311.0H940.2V314.5H928.7ZM924.7 330.0H942.6V345.4H938.8V333.4H928.4V345.6H924.7ZM926.2 340.4H940.9V343.9H926.2ZM929.6 306.5 933.4 307.5Q932.3 310.4 930.7 313.0Q929.1 315.7 927.3 318.0Q925.5 320.3 923.5 322.0Q923.2 321.6 922.6 321.1Q922.1 320.6 921.5 320.1Q920.9 319.6 920.4 319.3Q923.3 317.0 925.8 313.6Q928.2 310.3 929.6 306.5ZM939.2 311.0H939.9L940.6 310.9L943.1 312.1Q941.7 316.0 939.6 319.2Q937.4 322.5 934.6 325.1Q931.8 327.6 928.5 329.5Q925.3 331.4 921.9 332.7Q921.5 332.0 920.8 331.0Q920.2 330.0 919.6 329.5Q922.8 328.5 925.8 326.8Q928.9 325.1 931.5 322.8Q934.1 320.5 936.1 317.7Q938.1 314.9 939.2 311.7ZM928.7 313.5Q930.0 316.4 932.4 319.3Q934.9 322.3 938.4 324.7Q942.0 327.1 946.5 328.4Q946.1 328.8 945.7 329.4Q945.2 330.0 944.8 330.6Q944.4 331.2 944.1 331.7Q939.5 330.1 935.9 327.4Q932.3 324.8 929.7 321.6Q927.2 318.3 925.7 315.2ZM907.4 315.4H922.3V319.1H907.4ZM913.4 306.5H917.1V345.5H913.4ZM913.3 317.9 915.7 318.7Q915.2 321.2 914.4 323.9Q913.6 326.6 912.7 329.2Q911.7 331.8 910.6 334.0Q909.5 336.2 908.3 337.8Q908.1 337.0 907.5 336.0Q906.9 335.0 906.4 334.3Q907.5 332.9 908.5 331.0Q909.6 329.0 910.5 326.8Q911.4 324.6 912.1 322.3Q912.8 320.0 913.3 317.9ZM916.9 320.4Q917.3 320.8 918.1 321.7Q918.9 322.6 919.7 323.6Q920.6 324.7 921.3 325.5Q922.0 326.4 922.3 326.8L920.1 329.9Q919.7 329.1 919.0 328.1Q918.4 327.0 917.6 325.9Q916.9 324.7 916.2 323.7Q915.5 322.7 915.1 322.1Z" fill="#8F949D"/>
<path d="M522.3 321.2Q523.7 321.2 524.8 321.8Q525.9 322.5 526.5 323.6Q527.2 324.7 527.2 326.0Q527.2 327.4 526.5 328.5Q525.9 329.6 524.8 330.2Q523.7 330.9 522.3 330.9Q521.0 330.9 519.9 330.2Q518.8 329.6 518.1 328.5Q517.5 327.4 517.5 326.0Q517.5 324.7 518.1 323.6Q518.8 322.5 519.9 321.8Q521.0 321.2 522.3 321.2Z" fill="#E05C48"/>
<g transform="rotate(-5 1330 198)">
<rect x="1244" y="112" width="172" height="172" rx="18" fill="#D14F3B"/>
<rect x="1253" y="121" width="154" height="154" rx="12" fill="none" stroke="#14161B" stroke-opacity="0.5" stroke-width="2.5"/>
<path d="M1300.6 133.0H1309.2V175.1Q1309.2 178.7 1308.3 180.7Q1307.3 182.7 1305.0 183.6Q1302.6 184.7 1299.0 185.0Q1295.5 185.2 1290.7 185.2Q1290.5 184.0 1289.9 182.4Q1289.3 180.7 1288.6 179.2Q1287.9 177.6 1287.2 176.5Q1289.4 176.6 1291.8 176.7Q1294.1 176.7 1296.0 176.7Q1297.8 176.7 1298.6 176.7Q1299.7 176.7 1300.1 176.3Q1300.6 176.0 1300.6 175.0ZM1265.4 145.4H1273.4V174.6H1265.4ZM1268.8 145.4H1292.2V169.8H1268.8V162.0H1284.0V153.3H1268.8ZM1259.9 130.8H1316.3V139.1H1259.9Z" fill="#14161B"/>
<path d="M1345.0 130.8H1399.1V138.1H1345.0ZM1367.5 126.5 1376.6 127.4Q1376.1 130.7 1375.4 134.0Q1374.8 137.3 1374.2 140.3Q1373.5 143.2 1372.9 145.5L1365.3 144.4Q1365.8 142.0 1366.3 138.9Q1366.7 135.8 1367.0 132.5Q1367.4 129.3 1367.5 126.5ZM1355.4 150.2H1388.7V156.1H1355.4ZM1355.4 158.8H1388.7V164.7H1355.4ZM1343.5 176.2H1400.6V183.6H1343.5ZM1351.4 140.8H1392.8V179.1H1384.5V147.5H1359.3V179.1H1351.4ZM1355.8 167.4H1389.0V173.4H1355.8Z" fill="#14161B"/>
<path d="M1258.2 241.8Q1261.8 241.0 1266.9 239.8Q1271.9 238.5 1277.0 237.1L1278.1 244.5Q1273.5 245.9 1268.7 247.2Q1263.9 248.6 1259.9 249.6ZM1259.2 222.3H1277.6V229.8H1259.2ZM1265.2 210.8H1272.8V260.3Q1272.8 263.0 1272.2 264.7Q1271.7 266.3 1270.2 267.3Q1268.7 268.2 1266.6 268.6Q1264.4 268.9 1261.4 268.8Q1261.3 267.3 1260.7 265.1Q1260.1 262.8 1259.4 261.2Q1260.9 261.3 1262.3 261.3Q1263.7 261.3 1264.2 261.3Q1265.2 261.3 1265.2 260.3ZM1280.7 216.0H1315.3V222.9H1280.7ZM1278.9 230.2H1316.5V237.1H1278.9ZM1284.8 224.3 1291.1 221.9Q1292.2 223.5 1293.2 225.5Q1294.2 227.5 1294.7 228.9L1287.9 231.6Q1287.6 230.1 1286.7 228.1Q1285.8 226.0 1284.8 224.3ZM1303.0 222.2 1310.4 224.3Q1309.1 226.7 1307.9 228.8Q1306.6 231.0 1305.5 232.5L1299.2 230.5Q1299.9 229.3 1300.6 227.8Q1301.3 226.4 1301.9 224.9Q1302.6 223.4 1303.0 222.2ZM1278.0 242.3H1317.3V249.1H1278.0ZM1302.9 247.7 1310.8 248.7Q1309.3 253.7 1306.9 257.2Q1304.5 260.8 1300.9 263.0Q1297.2 265.3 1292.1 266.8Q1286.9 268.3 1280.0 269.2Q1279.6 267.5 1278.7 265.5Q1277.8 263.6 1276.9 262.4Q1284.8 261.8 1290.0 260.3Q1295.2 258.8 1298.3 255.8Q1301.4 252.8 1302.9 247.7ZM1280.7 255.8Q1282.6 253.3 1284.7 250.0Q1286.8 246.8 1288.7 243.3Q1290.6 239.8 1291.9 236.6L1299.5 238.2Q1298.1 241.4 1296.3 244.9Q1294.4 248.3 1292.5 251.4Q1290.5 254.5 1288.8 256.8ZM1280.7 255.8 1285.1 250.4Q1288.8 251.5 1293.1 253.0Q1297.3 254.4 1301.6 256.2Q1305.8 257.9 1309.5 259.7Q1313.2 261.5 1315.9 263.2L1311.0 269.4Q1308.5 267.7 1305.0 265.9Q1301.4 264.0 1297.2 262.1Q1293.1 260.3 1288.8 258.7Q1284.5 257.0 1280.7 255.8ZM1291.8 212.4 1299.5 211.3Q1300.6 213.0 1301.6 215.2Q1302.6 217.3 1303.1 218.9L1295.1 220.3Q1294.7 218.7 1293.7 216.5Q1292.7 214.2 1291.8 212.4Z" fill="#14161B"/>
<path d="M1368.0 238.8Q1371.9 248.1 1380.3 253.9Q1388.7 259.8 1401.9 261.9Q1401.1 262.7 1400.1 264.1Q1399.1 265.4 1398.2 266.8Q1397.4 268.2 1396.8 269.4Q1387.5 267.5 1380.7 263.7Q1373.9 260.0 1369.0 254.3Q1364.2 248.6 1360.9 240.9ZM1387.6 236.1H1389.2L1390.7 235.8L1396.5 238.4Q1394.3 245.1 1390.8 250.1Q1387.3 255.2 1382.6 258.9Q1377.9 262.6 1372.2 265.1Q1366.5 267.7 1360.0 269.4Q1359.3 267.7 1358.1 265.6Q1356.8 263.4 1355.6 262.1Q1361.4 260.9 1366.5 258.8Q1371.6 256.7 1375.8 253.6Q1380.0 250.6 1383.0 246.5Q1386.0 242.5 1387.6 237.5ZM1365.4 236.1H1388.8V244.0H1363.0ZM1368.1 210.2 1377.3 211.7Q1376.1 221.1 1374.0 229.1Q1371.9 237.0 1368.5 243.7Q1365.1 250.3 1360.1 255.5Q1355.1 260.7 1348.0 264.5Q1347.5 263.6 1346.4 262.3Q1345.4 261.0 1344.2 259.8Q1343.0 258.6 1342.0 257.8Q1350.5 253.5 1355.7 246.6Q1360.9 239.7 1363.9 230.5Q1366.8 221.3 1368.1 210.2ZM1382.3 214.5 1388.7 210.7Q1389.9 212.0 1391.3 213.5Q1392.7 215.1 1393.9 216.5Q1395.2 218.0 1396.1 219.1L1389.3 223.4Q1388.6 222.3 1387.4 220.7Q1386.2 219.2 1384.8 217.5Q1383.5 215.9 1382.3 214.5ZM1349.1 232.9Q1348.9 232.1 1348.4 230.7Q1347.9 229.4 1347.4 227.9Q1346.9 226.5 1346.5 225.6Q1347.2 225.3 1347.9 224.6Q1348.6 224.0 1349.2 222.9Q1349.6 222.3 1350.4 220.6Q1351.2 219.0 1352.1 216.7Q1353.0 214.4 1353.6 211.9L1362.2 213.2Q1361.4 216.0 1360.2 218.8Q1359.0 221.6 1357.7 224.1Q1356.4 226.6 1355.2 228.4V228.6Q1355.2 228.6 1354.3 229.0Q1353.4 229.4 1352.2 230.1Q1350.9 230.8 1350.0 231.5Q1349.1 232.3 1349.1 232.9ZM1349.1 232.9V227.0L1353.8 223.6H1399.9L1399.8 231.4H1355.6Q1353.2 231.4 1351.4 231.8Q1349.5 232.2 1349.1 232.9Z" fill="#14161B"/>
</g>
<path d="M1151.7 372.3Q1150.2 372.3 1148.7 371.7Q1147.3 371.1 1146.2 370.0L1147.8 368.1Q1148.6 368.9 1149.7 369.4Q1150.7 369.9 1151.8 369.9Q1153.1 369.9 1153.8 369.3Q1154.5 368.8 1154.5 367.9Q1154.5 367.2 1154.2 366.9Q1153.9 366.5 1153.3 366.2Q1152.8 365.9 1152.1 365.6L1150.0 364.7Q1149.2 364.4 1148.5 363.8Q1147.8 363.3 1147.3 362.5Q1146.8 361.7 1146.8 360.6Q1146.8 359.3 1147.5 358.4Q1148.2 357.4 1149.3 356.8Q1150.5 356.2 1152.0 356.2Q1153.4 356.2 1154.7 356.7Q1155.9 357.3 1156.8 358.2L1155.4 359.9Q1154.7 359.3 1153.9 359.0Q1153.0 358.6 1152.0 358.6Q1150.9 358.6 1150.3 359.1Q1149.6 359.6 1149.6 360.4Q1149.6 361.0 1150.0 361.4Q1150.3 361.8 1150.9 362.1Q1151.5 362.3 1152.1 362.6L1154.2 363.5Q1155.1 363.9 1155.8 364.4Q1156.5 365.0 1156.9 365.8Q1157.3 366.5 1157.3 367.7Q1157.3 368.9 1156.6 370.0Q1156.0 371.0 1154.7 371.7Q1153.5 372.3 1151.7 372.3Z M1168.3 372.0V358.8H1163.8V356.5H1175.5V358.8H1171.0V372.0Z M1189.2 372.3Q1187.1 372.3 1185.6 371.3Q1184.0 370.3 1183.2 368.5Q1182.3 366.7 1182.3 364.2Q1182.3 361.7 1183.2 359.9Q1184.0 358.1 1185.6 357.2Q1187.1 356.2 1189.2 356.2Q1191.2 356.2 1192.7 357.2Q1194.3 358.1 1195.1 359.9Q1196.0 361.7 1196.0 364.2Q1196.0 366.7 1195.1 368.5Q1194.3 370.3 1192.7 371.3Q1191.2 372.3 1189.2 372.3ZM1189.2 369.9Q1190.4 369.9 1191.3 369.2Q1192.2 368.5 1192.7 367.2Q1193.2 365.9 1193.2 364.2Q1193.2 362.4 1192.7 361.2Q1192.2 359.9 1191.3 359.3Q1190.4 358.6 1189.2 358.6Q1187.9 358.6 1187.0 359.3Q1186.1 359.9 1185.6 361.2Q1185.2 362.4 1185.2 364.2Q1185.2 365.9 1185.6 367.2Q1186.1 368.5 1187.0 369.2Q1187.9 369.9 1189.2 369.9Z M1204.1 372.0V356.5H1209.0Q1210.8 356.5 1212.1 356.9Q1213.5 357.4 1214.2 358.4Q1215.0 359.5 1215.0 361.3Q1215.0 363.0 1214.2 364.1Q1213.5 365.2 1212.1 365.8Q1210.8 366.3 1209.1 366.3H1206.9V372.0ZM1206.9 364.1H1208.9Q1210.6 364.1 1211.5 363.4Q1212.3 362.7 1212.3 361.3Q1212.3 359.8 1211.4 359.3Q1210.5 358.7 1208.8 358.7H1206.9Z M1237.4 372.0V358.8H1232.9V356.5H1244.6V358.8H1240.1V372.0Z M1252.2 372.0V356.5H1255.0V362.7H1261.2V356.5H1264.0V372.0H1261.2V365.1H1255.0V372.0Z M1272.9 372.0V356.5H1282.3V358.8H1275.7V362.8H1281.3V365.1H1275.7V369.7H1282.5V372.0Z M1300.0 372.0 1305.1 356.5H1308.3L1313.3 372.0H1310.4L1308.1 363.8Q1307.7 362.5 1307.4 361.2Q1307.0 359.9 1306.7 358.6H1306.6Q1306.3 359.9 1305.9 361.2Q1305.6 362.5 1305.2 363.8L1302.8 372.0ZM1303.0 367.8V365.6H1310.3V367.8Z M1320.3 372.0V356.5H1323.1V372.0Z M1347.8 372.3Q1346.2 372.3 1344.8 371.7Q1343.3 371.1 1342.2 370.0L1343.8 368.1Q1344.7 368.9 1345.7 369.4Q1346.8 369.9 1347.9 369.9Q1349.2 369.9 1349.9 369.3Q1350.6 368.8 1350.6 367.9Q1350.6 367.2 1350.2 366.9Q1349.9 366.5 1349.4 366.2Q1348.9 365.9 1348.2 365.6L1346.0 364.7Q1345.3 364.4 1344.6 363.8Q1343.8 363.3 1343.4 362.5Q1342.9 361.7 1342.9 360.6Q1342.9 359.3 1343.6 358.4Q1344.2 357.4 1345.4 356.8Q1346.6 356.2 1348.1 356.2Q1349.5 356.2 1350.7 356.7Q1352.0 357.3 1352.9 358.2L1351.5 359.9Q1350.8 359.3 1349.9 359.0Q1349.1 358.6 1348.1 358.6Q1347.0 358.6 1346.4 359.1Q1345.7 359.6 1345.7 360.4Q1345.7 361.0 1346.1 361.4Q1346.4 361.8 1347.0 362.1Q1347.5 362.3 1348.2 362.6L1350.3 363.5Q1351.2 363.9 1351.9 364.4Q1352.6 365.0 1353.0 365.8Q1353.4 366.5 1353.4 367.7Q1353.4 368.9 1352.7 370.0Q1352.1 371.0 1350.8 371.7Q1349.6 372.3 1347.8 372.3Z M1361.2 372.0V356.5H1364.0V369.7H1370.4V372.0Z M1384.2 372.3Q1382.2 372.3 1380.6 371.3Q1379.1 370.3 1378.2 368.5Q1377.3 366.7 1377.3 364.2Q1377.3 361.7 1378.2 359.9Q1379.1 358.1 1380.6 357.2Q1382.2 356.2 1384.2 356.2Q1386.2 356.2 1387.8 357.2Q1389.3 358.1 1390.2 359.9Q1391.0 361.7 1391.0 364.2Q1391.0 366.7 1390.2 368.5Q1389.3 370.3 1387.8 371.3Q1386.2 372.3 1384.2 372.3ZM1384.2 369.9Q1385.4 369.9 1386.3 369.2Q1387.2 368.5 1387.7 367.2Q1388.2 365.9 1388.2 364.2Q1388.2 362.4 1387.7 361.2Q1387.2 359.9 1386.3 359.3Q1385.4 358.6 1384.2 358.6Q1383.0 358.6 1382.1 359.3Q1381.2 359.9 1380.7 361.2Q1380.2 362.4 1380.2 364.2Q1380.2 365.9 1380.7 367.2Q1381.2 368.5 1382.1 369.2Q1383.0 369.9 1384.2 369.9Z M1399.2 372.0V356.5H1404.1Q1405.8 356.5 1407.1 356.9Q1408.5 357.4 1409.3 358.4Q1410.0 359.5 1410.0 361.3Q1410.0 363.0 1409.3 364.1Q1408.5 365.2 1407.2 365.8Q1405.8 366.3 1404.1 366.3H1401.9V372.0ZM1401.9 364.1H1403.9Q1405.6 364.1 1406.5 363.4Q1407.3 362.7 1407.3 361.3Q1407.3 359.8 1406.4 359.3Q1405.6 358.7 1403.8 358.7H1401.9Z" fill="#8F949D"/>
</svg>
